<svg width="767" height="385" viewBox="0 0 767 385" fill="none" xmlns="http://www.w3.org/2000/svg">
            <g clip-path="url(#clip0_121_11120)">
                <path d="M252.588 385C229.445 385 206.336 384.585 183.261 383.755C150.291 382.569 116.198 381.344 84.5092 363.746C62.3418 351.436 42.7092 331.686 27.7343 306.63C17.7253 289.647 10.3862 271.223 5.97496 252.004C-2.25378 217.014 -1.9735 180.557 6.79224 145.698C9.86409 133.746 14.0988 122.125 19.4357 111.001C42.5448 63.0836 84.694 30.918 135.076 22.7524C135.492 22.6983 135.913 22.6893 136.331 22.7255C136.558 22.7377 136.784 22.7507 137.014 22.741L137.31 22.6467C138.07 22.3822 138.851 22.1817 139.644 22.047C217.347 10.4641 299.49 33.9004 377.187 89.8207C437.262 133.064 516.878 156.35 620.587 161.009L622.059 161.086C650.929 162.747 678.855 174.664 702.821 195.553C726.476 216.17 744.237 243.677 754.183 275.102C755.406 278.933 756.527 282.921 757.515 286.955C758.434 290.703 758.369 294.626 757.326 298.342C756.283 302.058 754.297 305.44 751.561 308.159V308.167L751.303 308.433C750.682 309.052 750.027 309.646 749.358 310.198L748.572 310.848C741.944 316.314 736.71 320.633 730.445 323.987C726.266 326.208 721.822 327.888 717.22 328.986C691.948 335.156 666.283 340.876 640.939 345.988C591.72 355.925 541.205 364.123 490.795 370.352C411.767 380.109 332.215 385.001 252.588 385ZM135.742 24.4227C135.587 24.4212 135.432 24.4317 135.279 24.4541C85.368 32.5434 43.6178 64.3932 20.7379 111.836C15.4536 122.85 11.2608 134.356 8.21948 146.19C-0.466375 180.74 -0.743169 216.873 7.41238 251.552C11.7805 270.587 19.0483 288.835 28.9607 305.655C43.7891 330.466 63.2209 350.018 85.1559 362.197C116.56 379.638 150.492 380.858 183.308 382.038C285.943 385.71 388.708 381.231 490.636 368.644C541.013 362.419 591.496 354.227 640.683 344.296C666.009 339.187 691.656 333.472 716.911 327.306C721.403 326.235 725.74 324.596 729.817 322.428C735.956 319.142 741.141 314.865 747.705 309.45L748.491 308.802C749.066 308.326 749.631 307.818 750.171 307.29L750.326 307.127C755.72 301.683 757.818 294.5 756.081 287.422V287.421C755.104 283.43 753.995 279.485 752.784 275.693C732.465 211.499 679.902 166.132 621.988 162.802L620.523 162.725C573.151 160.596 531.696 154.7 493.796 144.698C448.553 132.758 409.054 114.784 376.398 91.2775C298.997 35.5716 217.197 12.2224 139.834 23.7504C139.111 23.8752 138.4 24.0598 137.708 24.3023L137.173 24.452C136.87 24.4656 136.566 24.462 136.263 24.4411C136.084 24.4319 135.911 24.4227 135.742 24.4227H135.742Z" fill="#404168" />
                <path d="M239.579 125.438C237.437 123.379 235.245 111.901 232.51 110.736C234.555 115.261 233.07 116.459 233.059 121.425C233.085 124.244 232.756 127.056 232.08 129.794H185.744V93.5837C185.744 90.3301 186.384 87.1084 187.627 84.1025C188.87 81.0966 190.693 78.3653 192.991 76.0647C195.288 73.7641 198.016 71.9391 201.018 70.6941C204.02 69.4491 207.237 68.8083 210.486 68.8084C211.727 68.8326 212.959 69.0133 214.154 69.346C218.137 70.4227 221.767 72.5292 224.68 75.4542C227.593 78.3791 229.687 82.0197 230.751 86.0107C234.283 98.9392 239.901 120.46 239.579 125.438Z" fill="#2F2E41" />
                <path d="M188.463 169.983L188.485 141.759L171.917 143.242L177.764 161.042L175.027 205.784C173.7 206.083 172.488 206.761 171.539 207.737C170.591 208.713 169.946 209.945 169.684 211.281C169.422 212.618 169.554 214.002 170.064 215.265C170.574 216.527 171.44 217.614 172.556 218.393C173.672 219.171 174.99 219.608 176.35 219.649C177.71 219.69 179.052 219.335 180.213 218.625C181.375 217.916 182.305 216.883 182.89 215.654C183.475 214.424 183.691 213.051 183.51 211.701L188.463 169.983Z" fill="#FFB6B6" />
                <path d="M221.069 371.669L227.763 371.668L230.948 345.816H221.068L221.069 371.669Z" fill="#FFB6B6" />
                <path d="M218.802 368.362L229.384 367.73V372.27L239.444 379.227C239.941 379.57 240.315 380.064 240.512 380.635C240.709 381.207 240.718 381.827 240.539 382.404C240.359 382.981 240 383.486 239.513 383.844C239.027 384.202 238.439 384.396 237.835 384.396H225.237L223.066 379.905L222.218 384.396H217.468L218.802 368.362Z" fill="#2F2E41" />
                <path d="M182.365 371.669L189.059 371.668L192.243 345.816H182.364L182.365 371.669Z" fill="#FFB6B6" />
                <path d="M180.098 368.362L190.68 367.73V372.27L200.74 379.227C201.237 379.57 201.611 380.064 201.808 380.635C202.005 381.207 202.014 381.827 201.834 382.404C201.655 382.981 201.295 383.486 200.809 383.844C200.323 384.202 199.735 384.396 199.131 384.396H186.533L184.362 379.905L183.514 384.396H178.764L180.098 368.362Z" fill="#2F2E41" />
                <path d="M215.109 111.28L201.242 111.553L191.454 121.898L183.606 123.051C180.056 123.572 176.793 125.298 174.361 127.939C171.929 130.58 170.476 133.978 170.246 137.563L171.605 145.04H179.762L184.481 172.783C182.646 177.464 182.521 181.16 186.288 182.611L197.979 204.664L232.51 189.145C234.261 186.131 234.822 183.103 233.032 180.158L235.501 137.689H243.801C243.801 129.746 241.118 123.05 233.235 122.166C230.104 121.827 226.958 121.646 223.809 121.626L215.109 111.28Z" fill="#E6E6E6" />
                <path d="M232.51 189.145C232.51 189.145 198.795 195.135 186.287 182.611C186.287 182.611 185.018 184.77 183.104 188.35C182.554 189.379 181.491 190.077 180.85 191.324C180.266 192.457 178.766 193.85 178.131 195.136C177.619 196.17 178.439 197.521 177.908 198.638C171.502 212.09 164.019 231.066 165.623 243.597C166.658 251.677 168.795 270.48 171.045 290.675C171.221 292.252 169.797 294.279 169.974 295.87C170.14 297.369 171.908 298.432 172.075 299.935C172.185 300.933 170.951 301.952 171.061 302.948C171.182 304.042 172.648 305.114 172.769 306.204C175.852 334.088 178.674 360.122 178.674 360.122H194.444L197.42 300.664L194.988 278.99L200.698 235.157L208.583 276.812L209.597 300.256L217.93 361.211H232.51V302.202L233.598 299.137L232.51 295.205L233.598 290.969L232.51 286.356V189.145Z" fill="#2F2E41" />
                <path d="M219.365 103.228C217.217 106.085 214.161 108.125 210.701 109.011C207.241 109.897 203.582 109.576 200.328 108.102C197.074 106.628 194.419 104.088 192.799 100.901C191.179 97.7136 190.691 94.069 191.416 90.5672C192.141 87.0654 194.036 83.9153 196.788 81.6356C199.539 79.3559 202.985 78.0826 206.556 78.0254C210.127 77.9682 213.611 79.1304 216.434 81.3208C219.257 83.5111 221.252 86.599 222.088 90.0757C222.133 90.2644 222.171 90.4519 222.209 90.6467C222.65 92.8259 222.625 95.0742 222.135 97.2431C221.645 99.4119 220.701 101.452 219.365 103.228Z" fill="#FFB6B6" />
                <path d="M216.087 94.248C215.754 92.5722 214.911 91.041 213.673 89.8646C213.795 91.4705 213.573 93.0839 213.02 94.5965C208.886 94.963 204.734 94.1394 201.052 92.2224C198.278 90.3384 194.749 90.5017 190.638 92.2224C190.638 90.2202 191.031 88.2375 191.796 86.3876C192.562 84.5377 193.683 82.8569 195.097 81.4411C196.511 80.0253 198.19 78.9022 200.037 78.1361C201.884 77.37 203.865 76.9758 205.864 76.9761H208.583C212.621 76.9768 216.494 78.5833 219.349 81.4424C222.204 84.3015 223.809 88.179 223.809 92.2224C221.3 93.1236 218.716 93.8014 216.087 94.248Z" fill="#2F2E41" />
                <path d="M97.1341 288.568C121.293 288.568 140.877 268.958 140.877 244.768C140.877 220.577 121.293 200.967 97.1341 200.967C72.9756 200.967 53.3912 220.577 53.3912 244.768C53.3912 268.958 72.9756 288.568 97.1341 288.568Z" fill="#404168" />
                <path d="M375.888 87.6011C400.046 87.6011 419.63 67.9909 419.63 43.8005C419.63 19.6102 400.046 0 375.888 0C351.729 0 332.145 19.6102 332.145 43.8005C332.145 67.9909 351.729 87.6011 375.888 87.6011Z" fill="#404168" />
                <path d="M723.257 295.439C747.416 295.439 767 275.829 767 251.638C767 227.448 747.416 207.838 723.257 207.838C699.099 207.838 679.514 227.448 679.514 251.638C679.514 275.829 699.099 295.439 723.257 295.439Z" fill="#404168" />
                <path d="M454.796 48.5772V147.898C454.796 149.961 453.984 151.941 452.535 153.407C451.085 154.874 449.117 155.708 447.057 155.73C447.028 155.733 447 155.734 446.971 155.733H435.426C426.189 155.733 417.331 152.059 410.799 145.519C404.268 138.979 400.598 130.108 400.598 120.859V48.5772C400.598 46.4991 401.423 44.5061 402.89 43.0366C404.358 41.5672 406.348 40.7417 408.423 40.7417H413.101C410.934 47.0718 440.346 49.7369 441.961 40.7417H446.971C449.046 40.7417 451.037 41.5672 452.504 43.0367C453.972 44.5061 454.796 46.4991 454.796 48.5772Z" fill="#6672E2" />
                <path d="M420.537 33.3148C420.537 33.0426 420.645 32.7816 420.838 32.5891C421.03 32.3966 421.291 32.2883 421.562 32.288H428.536C428.807 32.2887 429.068 32.3973 429.259 32.5898C429.451 32.7823 429.559 33.043 429.559 33.3148C429.559 33.5867 429.451 33.8474 429.259 34.0399C429.068 34.2324 428.807 34.3409 428.536 34.3417H421.562C421.291 34.3414 421.03 34.2331 420.838 34.0406C420.645 33.8481 420.537 33.5871 420.537 33.3148Z" fill="#3F3D56" />
                <path d="M449.367 168.331H405.267C401.846 168.328 398.565 166.965 396.146 164.543C393.727 162.12 392.366 158.836 392.362 155.41V85.9803C392.12 85.8062 391.922 85.5767 391.787 85.3111C391.651 85.0454 391.58 84.7511 391.58 84.4526V77.4699C391.58 77.1715 391.651 76.8773 391.787 76.6116C391.922 76.346 392.12 76.1167 392.362 75.9427V74.0686C392.12 73.8946 391.922 73.6652 391.787 73.3996C391.651 73.134 391.58 72.8397 391.58 72.5413V65.5582C391.58 65.2598 391.651 64.9655 391.787 64.6999C391.922 64.4343 392.12 64.205 392.362 64.031V60.6438C392.063 60.4831 391.813 60.2439 391.639 59.952C391.465 59.6601 391.374 59.3264 391.375 58.9865V52.0039C391.374 51.664 391.465 51.3303 391.639 51.0383C391.813 50.7463 392.063 50.5071 392.362 50.3462V41.0651C392.366 37.6391 393.727 34.3546 396.146 31.9322C398.565 29.5097 401.846 28.1471 405.267 28.1432H449.367C452.788 28.1471 456.068 29.5097 458.488 31.9322C460.907 34.3547 462.268 37.6392 462.272 41.0651V61.2959C462.504 61.4415 462.696 61.6438 462.829 61.8839C462.962 62.124 463.031 62.394 463.031 62.6685V75.9829C463.031 76.2575 462.962 76.5275 462.829 76.7676C462.696 77.0078 462.504 77.2102 462.272 77.3559V155.41C462.268 158.835 460.907 162.12 458.488 164.542C456.068 166.965 452.788 168.328 449.367 168.331ZM405.267 29.8609C402.3 29.8642 399.456 31.0457 397.358 33.1462C395.261 35.2467 394.081 38.0946 394.077 41.0651V51.8073L393.252 51.8391C393.209 51.8407 393.169 51.8586 393.139 51.8893C393.108 51.9199 393.091 51.961 393.09 52.004V58.9865C393.091 59.0294 393.109 59.0704 393.139 59.101C393.169 59.1317 393.209 59.1497 393.252 59.1513L394.077 59.1828V65.237L393.425 65.398C393.389 65.4067 393.356 65.4272 393.333 65.4562C393.31 65.4851 393.297 65.521 393.296 65.5582V72.5413C393.297 72.5785 393.31 72.6144 393.333 72.6433C393.356 72.6723 393.389 72.6927 393.425 72.7015L394.077 72.8625V77.1487L393.425 77.3097C393.389 77.3184 393.356 77.3389 393.333 77.3679C393.31 77.3968 393.297 77.4327 393.296 77.4699V84.4526C393.296 84.4898 393.31 84.5258 393.333 84.5548C393.356 84.5839 393.388 84.6044 393.425 84.6131L394.077 84.7742V155.41C394.081 158.38 395.261 161.228 397.358 163.328C399.456 165.429 402.3 166.61 405.267 166.614H449.367C452.333 166.61 455.177 165.429 457.275 163.328C459.373 161.228 460.553 158.38 460.556 155.41V75.8852H461.316V62.7666H460.556V41.0651C460.553 38.0946 459.373 35.2467 457.275 33.1462C455.177 31.0458 452.333 29.8643 449.367 29.8609L405.267 29.8609Z" fill="#3F3D56" />
                <path d="M432.433 34.3417C432.999 34.3417 433.458 33.8819 433.458 33.3148C433.458 32.7477 432.999 32.288 432.433 32.288C431.867 32.288 431.407 32.7477 431.407 33.3148C431.407 33.8819 431.867 34.3417 432.433 34.3417Z" fill="#3F3D56" />
                <path d="M209.348 232.231H94.5986C92.9691 232.227 91.4074 231.577 90.2551 230.423C89.1027 229.27 88.4534 227.706 88.449 226.074V170.088C88.4532 168.456 89.1023 166.892 90.2545 165.738C91.4067 164.585 92.9682 163.934 94.5978 163.93H209.347C210.977 163.934 212.539 164.584 213.691 165.738C214.843 166.892 215.493 168.455 215.497 170.087V226.073C215.493 227.705 214.844 229.269 213.692 230.423C212.539 231.577 210.978 232.227 209.348 232.231Z" fill="white" />
                <path d="M209.348 232.231H94.5986C92.9691 232.227 91.4074 231.577 90.2551 230.423C89.1027 229.27 88.4534 227.706 88.449 226.074V170.088C88.4532 168.456 89.1023 166.892 90.2545 165.738C91.4067 164.585 92.9682 163.934 94.5978 163.93H209.347C210.977 163.934 212.539 164.584 213.691 165.738C214.843 166.892 215.493 168.455 215.497 170.087V226.073C215.493 227.705 214.844 229.269 213.692 230.423C212.539 231.577 210.978 232.227 209.348 232.231ZM94.5986 165.648C93.4235 165.651 92.2975 166.12 91.4667 166.952C90.6358 167.784 90.1676 168.912 90.1644 170.089V226.073C90.1678 227.25 90.6362 228.378 91.4672 229.21C92.2982 230.041 93.4243 230.51 94.5995 230.513H209.347C210.522 230.51 211.648 230.041 212.479 229.209C213.31 228.377 213.778 227.249 213.782 226.073V170.088C213.778 168.911 213.31 167.784 212.479 166.952C211.648 166.12 210.522 165.651 209.347 165.648L94.5986 165.648Z" fill="#3F3D56" />
                <path d="M158.123 223.957C135.492 223.957 111.894 223.741 103.09 223.6C101.931 223.576 100.828 223.1 100.016 222.273C99.2031 221.445 98.7459 220.333 98.7414 219.173V172.829C98.7418 172.413 98.9066 172.015 99.1996 171.721C99.4926 171.427 99.8901 171.261 100.305 171.259H203.637C204.052 171.26 204.45 171.425 204.744 171.718C205.037 172.011 205.203 172.409 205.205 172.825V204.268C205.185 209.401 203.158 214.322 199.557 217.975C195.956 221.628 191.069 223.722 185.943 223.809C177.737 223.916 168.02 223.957 158.123 223.957Z" fill="#6672E2" />
                <path d="M197.504 201.379H104.135C103.353 201.377 102.591 201.134 101.952 200.683C101.313 200.232 100.828 199.595 100.563 198.858L89.9952 169.171C89.7915 168.599 89.728 167.986 89.8101 167.384C89.8921 166.781 90.1173 166.208 90.4667 165.711C90.8161 165.214 91.2795 164.808 91.8179 164.527C92.3564 164.247 92.9543 164.1 93.5613 164.099L210.271 163.936C210.826 163.935 211.374 164.057 211.877 164.291C212.38 164.526 212.825 164.868 213.182 165.293C213.538 165.719 213.797 166.218 213.94 166.755C214.083 167.291 214.107 167.853 214.01 168.4L214.1 168.438L213.765 169.221L213.762 169.229L200.986 199.078C200.695 199.761 200.21 200.344 199.59 200.753C198.971 201.162 198.246 201.38 197.504 201.379ZM210.276 165.654L93.5646 165.816C93.2321 165.817 92.9046 165.897 92.6096 166.051C92.3146 166.205 92.0607 166.427 91.8693 166.699C91.6779 166.971 91.5545 167.286 91.5095 167.615C91.4646 167.945 91.4993 168.281 91.6109 168.595L102.178 198.28C102.324 198.684 102.589 199.033 102.94 199.28C103.29 199.527 103.708 199.66 104.136 199.662H197.504C197.91 199.662 198.307 199.543 198.646 199.319C198.984 199.095 199.25 198.776 199.409 198.402L212.185 168.552L212.813 168.822L212.185 168.552C212.321 168.236 212.375 167.891 212.345 167.548C212.314 167.205 212.199 166.875 212.01 166.588C211.821 166.301 211.563 166.065 211.261 165.902C210.958 165.739 210.62 165.653 210.276 165.654Z" fill="#3F3D56" />
                <path d="M151.799 207.841C155.837 207.841 159.11 204.564 159.11 200.521C159.11 196.478 155.837 193.2 151.799 193.2C147.761 193.2 144.488 196.478 144.488 200.521C144.488 204.564 147.761 207.841 151.799 207.841Z" fill="white" />
                <path d="M427.979 144.288C432.017 144.288 435.29 141.01 435.29 136.967C435.29 132.924 432.017 129.646 427.979 129.646C423.941 129.646 420.668 132.924 420.668 136.967C420.668 141.01 423.941 144.288 427.979 144.288Z" fill="white" />
                <path d="M704.499 243.153L684.969 223.847C684.018 222.899 682.89 222.149 681.65 221.639C680.409 221.129 679.08 220.87 677.739 220.875H677.67C676.319 220.879 674.982 221.151 673.736 221.676C672.491 222.201 671.361 222.968 670.414 223.932C666.047 228.358 663.563 234.306 663.485 240.526C663.407 246.747 665.74 252.755 669.994 257.29C670.199 257.513 670.414 257.728 670.628 257.942C671.816 259.124 673.127 260.175 674.539 261.077C678.4 263.575 682.903 264.897 687.499 264.882H687.645C690.8 264.871 693.922 264.234 696.83 263.007C699.737 261.781 702.373 259.989 704.585 257.736C706.501 255.789 707.569 253.161 707.552 250.427C707.536 247.693 706.438 245.077 704.499 243.153ZM703.367 256.525C699.741 260.183 694.967 262.477 689.848 263.022C684.73 263.566 679.581 262.327 675.269 259.514C674.035 258.696 672.883 257.762 671.829 256.723C667.621 252.561 665.236 246.896 665.199 240.974C665.162 235.052 667.476 229.357 671.632 225.143C672.422 224.337 673.364 223.697 674.404 223.259C675.443 222.821 676.559 222.594 677.687 222.593H677.739C678.855 222.589 679.962 222.805 680.995 223.23C682.028 223.654 682.968 224.278 683.76 225.066L703.29 244.381C704.906 245.982 705.823 248.16 705.837 250.437C705.852 252.714 704.963 254.904 703.367 256.525Z" fill="#3F3D56" />
                <path d="M640.42 179.788L620.89 160.473C618.968 158.563 616.368 157.495 613.66 157.502H613.6C612.247 157.507 610.908 157.781 609.661 158.307C608.414 158.833 607.284 159.602 606.335 160.568C602.725 164.239 600.384 168.971 599.656 174.072C598.927 179.172 599.849 184.372 602.287 188.909L602.295 188.918C603.301 190.774 604.55 192.486 606.009 194.011C606.172 194.199 606.361 194.388 606.549 194.577C611.034 199.035 617.101 201.53 623.42 201.517H623.575C626.73 201.504 629.852 200.865 632.759 199.637C635.667 198.409 638.303 196.616 640.514 194.363C641.464 193.4 642.215 192.259 642.724 191.005C643.233 189.751 643.491 188.409 643.482 187.056C643.473 185.702 643.198 184.364 642.673 183.117C642.148 181.87 641.382 180.739 640.42 179.788V179.788ZM639.288 193.16C637.235 195.252 634.789 196.915 632.09 198.054C629.392 199.194 626.495 199.787 623.566 199.799H623.42C619.022 199.797 614.723 198.494 611.063 196.052C607.403 193.61 604.546 190.139 602.851 186.075C601.156 182.011 600.699 177.537 601.537 173.214C602.375 168.89 604.471 164.912 607.562 161.779C609.161 160.16 611.336 159.242 613.61 159.228C615.883 159.213 618.07 160.103 619.689 161.701L639.219 181.008C640.835 182.612 641.75 184.792 641.762 187.07C641.775 189.348 640.885 191.538 639.288 193.16L639.288 193.16Z" fill="#3F3D56" />
                <path d="M705.747 249.223L684.216 227.929C682.804 226.536 680.898 225.761 678.916 225.773C676.934 225.785 675.038 226.584 673.643 227.995C671.899 229.76 670.519 231.851 669.582 234.151C668.645 236.45 668.17 238.911 668.184 241.394C668.198 243.877 668.701 246.333 669.664 248.621C670.626 250.909 672.03 252.985 673.794 254.73C675.558 256.475 677.649 257.855 679.946 258.79C682.243 259.725 684.701 260.198 687.181 260.181C689.661 260.164 692.113 259.658 694.397 258.692C696.681 257.726 698.753 256.318 700.494 254.549L705.747 249.223Z" fill="#6672E2" />
                <path d="M641.672 185.855L620.141 164.561C618.729 163.168 616.823 162.392 614.841 162.405C612.859 162.417 610.962 163.216 609.568 164.627C607.823 166.392 606.443 168.483 605.507 170.782C604.57 173.081 604.095 175.543 604.109 178.026C604.123 180.509 604.626 182.965 605.588 185.253C606.551 187.541 607.955 189.617 609.719 191.362C611.483 193.107 613.574 194.486 615.871 195.422C618.168 196.357 620.626 196.83 623.106 196.813C625.586 196.796 628.038 196.29 630.322 195.324C632.606 194.357 634.678 192.95 636.418 191.181L641.672 185.855Z" fill="#6672E2" />
                <path d="M682.087 262.485L681.573 263.842C679.154 262.923 676.81 262.002 674.54 261.077C634.33 244.647 615.135 225.418 602.295 188.918L602.287 188.909C601.678 187.191 601.086 185.434 600.511 183.636L601.866 183.198C602.32 184.927 602.982 186.594 603.839 188.162C604.542 190.163 605.266 192.113 606.009 194.011C618.077 224.817 635.874 242.423 669.994 257.289C671.709 258.037 673.467 258.778 675.269 259.514C677.36 260.878 679.665 261.883 682.087 262.485Z" fill="#3F3D56" />
                <path d="M620.532 199.953L619.327 201.176L663.874 245.232L665.08 244.01L620.532 199.953Z" fill="#3F3D56" />
                <path d="M243.386 163.449L243.409 135.225L226.84 136.708L232.687 154.508L211.462 186.727C210.134 187.025 208.922 187.703 207.974 188.679C207.025 189.655 206.38 190.887 206.118 192.223C205.856 193.56 205.988 194.944 206.498 196.207C207.008 197.47 207.874 198.556 208.99 199.335C210.106 200.113 211.425 200.55 212.784 200.591C214.144 200.632 215.486 200.277 216.648 199.567C217.809 198.858 218.739 197.825 219.324 196.596C219.91 195.366 220.125 193.993 219.944 192.643L243.386 163.449Z" fill="#FFB6B6" />
            </g>
            <defs>
                <clipPath id="clip0_121_11120">
                    <rect width="767" height="385" fill="white" />
                </clipPath>
            </defs>
        </svg>