<svg width="1400" height="700" viewBox="0 0 1400 700" fill="none" xmlns="http://www.w3.org/2000/svg">
<rect width="1400" height="700" rx="25" fill="black"/>
<path d="M1105.85 289.965C1105.84 289.137 1105.15 288.481 1104.32 288.499C1104.32 288.499 1104.32 288.5 1104.32 288.5C1104.15 282.891 1103.77 277.335 1103.19 271.838C1103.19 271.838 1103.19 271.837 1103.19 271.837C1104.02 271.744 1104.61 271.001 1104.52 270.178C1104.14 266.88 1103.7 263.603 1103.18 260.35C1103.05 259.532 1102.28 258.975 1101.46 259.105C1101.46 259.105 1101.45 259.106 1101.45 259.106C1100.53 253.58 1099.4 248.122 1098.07 242.741C1098.07 242.74 1098.07 242.74 1098.07 242.739C1098.87 242.535 1099.36 241.718 1099.15 240.915C1098.33 237.701 1097.44 234.514 1096.48 231.357C1096.24 230.564 1095.4 230.117 1094.61 230.359C1094.61 230.359 1094.61 230.36 1094.61 230.36C1092.94 225.024 1091.07 219.773 1089.02 214.615C1089.02 214.614 1089.02 214.614 1089.02 214.613C1089.79 214.301 1090.16 213.425 1089.85 212.658C1088.6 209.59 1087.28 206.555 1085.9 203.555C1085.55 202.803 1084.66 202.474 1083.91 202.821C1083.91 202.821 1083.9 202.822 1083.9 202.823C1081.53 197.771 1078.97 192.821 1076.23 187.98C1076.24 187.979 1076.24 187.979 1076.24 187.978C1076.96 187.565 1077.2 186.648 1076.79 185.93C1075.14 183.061 1073.43 180.23 1071.66 177.441C1071.21 176.742 1070.28 176.535 1069.58 176.98C1069.58 176.981 1069.58 176.982 1069.58 176.983C1066.56 172.3 1063.36 167.735 1060 163.295C1060 163.294 1060 163.293 1060 163.292C1060.66 162.787 1060.78 161.845 1060.28 161.188C1058.26 158.565 1056.19 155.987 1054.07 153.454C1053.53 152.82 1052.59 152.738 1051.95 153.271C1051.95 153.272 1051.95 153.273 1051.95 153.274C1048.34 149.036 1044.57 144.929 1040.65 140.964C1040.65 140.962 1040.65 140.961 1040.66 140.96C1041.24 140.374 1041.24 139.424 1040.65 138.839C1038.32 136.503 1035.93 134.217 1033.49 131.982C1032.87 131.423 1031.93 131.464 1031.37 132.075C1031.37 132.076 1031.36 132.078 1031.36 132.079C1027.24 128.349 1022.97 124.765 1018.57 121.336C1018.57 121.335 1018.57 121.334 1018.57 121.332C1019.07 120.675 1018.95 119.734 1018.29 119.229C1015.68 117.216 1013.01 115.257 1010.3 113.354C1009.62 112.878 1008.69 113.041 1008.21 113.719C1008.21 113.72 1008.21 113.722 1008.21 113.723C1003.64 110.558 998.947 107.551 994.137 104.712C994.138 104.71 994.139 104.709 994.14 104.708C994.556 103.991 994.313 103.073 993.597 102.657C990.743 100.997 987.849 99.3949 984.916 97.853C984.183 97.4675 983.276 97.7493 982.891 98.4826C982.89 98.484 982.889 98.4854 982.888 98.4869C977.958 95.9353 972.921 93.5535 967.784 91.3495C967.785 91.348 967.786 91.3465 967.786 91.345C968.108 90.5816 967.75 89.702 966.987 89.3802C963.947 88.0993 960.874 86.88 957.768 85.7241C956.992 85.4351 956.128 85.8302 955.839 86.6066C955.839 86.6081 955.838 86.6096 955.837 86.6112C950.628 84.7105 945.329 82.9888 939.947 81.4535C939.948 81.4519 939.948 81.4504 939.949 81.4488C940.171 80.6507 939.704 79.8237 938.906 79.6015C935.73 78.7176 932.526 77.8981 929.296 77.1446C928.489 76.9564 927.682 77.4579 927.494 78.2646C927.494 78.2662 927.494 78.2678 927.493 78.2693C922.089 77.0454 916.612 76.007 911.068 75.1614C911.069 75.1599 911.069 75.1583 911.069 75.1567C911.189 74.337 910.621 73.5754 909.802 73.4557C906.544 72.98 903.263 72.5705 899.962 72.2285C899.138 72.1432 898.401 72.742 898.316 73.566C898.316 73.5676 898.315 73.5691 898.315 73.5707C892.815 73.0362 887.257 72.6903 881.649 72.5401C881.649 72.5385 881.649 72.537 881.649 72.5354C881.666 71.7071 881.008 71.0219 880.18 71.0049C878.526 70.9709 876.868 70.9539 875.205 70.9539C873.543 70.9539 871.885 70.9709 870.23 71.0049C869.402 71.0219 868.745 71.7071 868.762 72.5354C868.762 72.537 868.762 72.5385 868.762 72.5401C863.154 72.6904 857.596 73.0362 852.096 73.5707C852.095 73.5691 852.095 73.5676 852.095 73.566C852.01 72.742 851.272 72.1432 850.448 72.2285C847.147 72.5705 843.867 72.98 840.609 73.4557C839.789 73.5754 839.222 74.337 839.341 75.1567C839.342 75.1583 839.342 75.1599 839.342 75.1615C833.799 76.007 828.321 77.0454 822.917 78.2693C822.917 78.2678 822.917 78.2662 822.916 78.2647C822.728 77.4579 821.922 76.9564 821.115 77.1446C817.885 77.8981 814.681 78.7176 811.505 79.6016C810.707 79.8237 810.24 80.6507 810.462 81.4488C810.462 81.4504 810.463 81.4519 810.463 81.4535C805.082 82.9888 799.782 84.7106 794.573 86.6112C794.573 86.6097 794.572 86.6081 794.572 86.6066C794.283 85.8302 793.419 85.4351 792.643 85.7241C789.537 86.88 786.463 88.0993 783.424 89.3803C782.661 89.702 782.303 90.5817 782.624 91.3451C782.625 91.3466 782.626 91.348 782.626 91.3495C777.49 93.5536 772.452 95.9353 767.522 98.4869C767.522 98.4855 767.521 98.484 767.52 98.4826C767.135 97.7493 766.228 97.4675 765.494 97.853C762.562 99.395 759.668 100.997 756.814 102.657C756.097 103.073 755.855 103.991 756.271 104.708C756.272 104.709 756.273 104.71 756.274 104.712C751.464 107.551 746.77 110.558 742.201 113.723C742.201 113.722 742.2 113.72 742.199 113.719C741.722 113.041 740.787 112.878 740.109 113.354C737.4 115.257 734.735 117.216 732.116 119.229C731.459 119.734 731.336 120.675 731.841 121.332C731.842 121.334 731.843 121.335 731.844 121.336C727.442 124.765 723.174 128.349 719.048 132.079C719.047 132.078 719.045 132.076 719.044 132.075C718.485 131.464 717.536 131.423 716.925 131.982C714.485 134.217 712.095 136.503 709.756 138.839C709.17 139.424 709.17 140.374 709.755 140.96C709.756 140.961 709.758 140.962 709.759 140.964C705.841 144.929 702.072 149.036 698.463 153.274C698.462 153.273 698.46 153.272 698.459 153.271C697.825 152.738 696.879 152.82 696.346 153.454C694.218 155.987 692.146 158.565 690.132 161.188C689.627 161.845 689.751 162.787 690.408 163.292C690.409 163.293 690.41 163.294 690.412 163.295C687.049 167.735 683.852 172.3 680.83 176.983C680.829 176.982 680.827 176.981 680.826 176.98C680.127 176.535 679.2 176.742 678.755 177.441C676.981 180.23 675.269 183.061 673.619 185.93C673.206 186.648 673.454 187.565 674.172 187.978C674.174 187.979 674.175 187.979 674.177 187.98C671.437 192.821 668.878 197.771 666.508 202.823C666.506 202.822 666.505 202.821 666.503 202.821C665.751 202.474 664.86 202.803 664.513 203.555C663.131 206.555 661.814 209.59 660.565 212.658C660.253 213.425 660.622 214.301 661.389 214.613C661.391 214.614 661.392 214.614 661.394 214.615C659.336 219.773 657.47 225.024 655.805 230.36C655.804 230.36 655.802 230.359 655.8 230.359C655.008 230.117 654.17 230.564 653.929 231.357C652.968 234.514 652.076 237.701 651.256 240.915C651.052 241.718 651.536 242.535 652.339 242.739C652.341 242.74 652.342 242.74 652.344 242.741C651.011 248.122 649.879 253.58 648.958 259.106C648.956 259.106 648.954 259.105 648.953 259.105C648.134 258.975 647.365 259.532 647.235 260.35C646.715 263.603 646.268 266.88 645.894 270.178C645.801 271.001 646.393 271.744 647.216 271.837C647.218 271.837 647.219 271.838 647.221 271.838C646.637 277.335 646.259 282.891 646.094 288.5C646.093 288.5 646.091 288.5 646.089 288.499C645.261 288.481 644.574 289.137 644.556 289.965C644.519 291.62 644.5 293.279 644.5 294.943C644.5 296.606 644.519 298.265 644.556 299.92C644.574 300.748 645.261 301.404 646.089 301.386C646.091 301.386 646.093 301.386 646.094 301.386C646.259 306.994 646.637 312.55 647.221 318.048C647.219 318.048 647.218 318.048 647.216 318.048C646.393 318.141 645.801 318.884 645.894 319.707C646.268 323.005 646.715 326.282 647.235 329.535C647.365 330.353 648.134 330.911 648.953 330.78C648.954 330.78 648.956 330.779 648.958 330.779C649.88 336.305 651.011 341.763 652.344 347.145C652.342 347.145 652.341 347.145 652.339 347.146C651.536 347.351 651.052 348.167 651.256 348.97C652.076 352.184 652.968 355.371 653.929 358.528C654.17 359.321 655.008 359.768 655.8 359.527C655.802 359.526 655.804 359.526 655.805 359.525C657.47 364.861 659.336 370.112 661.394 375.27C661.392 375.271 661.391 375.272 661.389 375.272C660.622 375.585 660.253 376.46 660.565 377.227C661.814 380.295 663.131 383.33 664.513 386.33C664.86 387.083 665.751 387.411 666.503 387.065C666.505 387.064 666.506 387.063 666.508 387.063C668.878 392.114 671.437 397.064 674.177 401.905C674.175 401.906 674.174 401.907 674.172 401.908C673.454 402.32 673.206 403.237 673.619 403.956C675.269 406.825 676.981 409.655 678.755 412.445C679.2 413.144 680.127 413.35 680.826 412.905C680.827 412.905 680.829 412.904 680.83 412.903C683.852 417.585 687.049 422.151 690.412 426.591C690.41 426.592 690.409 426.593 690.408 426.594C689.751 427.098 689.627 428.04 690.132 428.697C692.146 431.32 694.218 433.898 696.346 436.431C696.879 437.065 697.825 437.147 698.459 436.614C698.46 436.613 698.462 436.612 698.463 436.611C702.072 440.85 705.841 444.956 709.759 448.922C709.758 448.923 709.756 448.924 709.755 448.925C709.17 449.511 709.17 450.461 709.756 451.047C712.095 453.382 714.485 455.668 716.925 457.903C717.536 458.463 718.485 458.421 719.044 457.81C719.045 457.809 719.047 457.808 719.048 457.806C723.174 461.536 727.442 465.12 731.844 468.549C731.843 468.55 731.842 468.552 731.841 468.553C731.336 469.21 731.459 470.152 732.116 470.656C734.735 472.669 737.4 474.628 740.109 476.531C740.787 477.008 741.722 476.844 742.199 476.166C742.2 476.165 742.201 476.164 742.201 476.162C746.77 479.327 751.464 482.334 756.274 485.173C756.273 485.175 756.272 485.176 756.271 485.178C755.855 485.894 756.097 486.812 756.814 487.228C759.668 488.888 762.562 490.49 765.494 492.032C766.228 492.418 767.135 492.136 767.52 491.403C767.521 491.401 767.522 491.4 767.522 491.398C772.452 493.95 777.49 496.332 782.626 498.536C782.626 498.537 782.625 498.539 782.624 498.54C782.303 499.304 782.661 500.183 783.424 500.505C786.463 501.786 789.537 503.005 792.643 504.161C793.419 504.45 794.283 504.055 794.572 503.279C794.572 503.277 794.573 503.276 794.573 503.274C799.782 505.175 805.082 506.896 810.463 508.432C810.463 508.433 810.462 508.435 810.462 508.436C810.24 509.234 810.707 510.062 811.505 510.284C814.681 511.168 817.885 511.987 821.115 512.741C821.922 512.929 822.728 512.427 822.916 511.621C822.917 511.619 822.917 511.617 822.918 511.616C828.321 512.84 833.799 513.878 839.342 514.724C839.342 514.725 839.342 514.727 839.342 514.729C839.222 515.548 839.789 516.31 840.609 516.429C843.867 516.905 847.147 517.315 850.448 517.657C851.272 517.742 852.01 517.143 852.095 516.319C852.095 516.318 852.095 516.316 852.096 516.315C857.596 516.849 863.154 517.195 868.762 517.345C868.762 517.347 868.762 517.348 868.762 517.35C868.745 518.178 869.402 518.863 870.23 518.88C871.885 518.914 873.543 518.931 875.205 518.931C876.868 518.931 878.526 518.914 880.18 518.88C881.009 518.863 881.666 518.178 881.649 517.35C881.649 517.348 881.649 517.347 881.649 517.345C887.257 517.195 892.815 516.849 898.315 516.315C898.315 516.316 898.316 516.318 898.316 516.319C898.401 517.143 899.138 517.742 899.962 517.657C903.263 517.315 906.544 516.905 909.802 516.429C910.621 516.31 911.189 515.548 911.069 514.729C911.069 514.727 911.069 514.725 911.069 514.724C916.612 513.878 922.089 512.84 927.493 511.616C927.494 511.617 927.494 511.619 927.494 511.621C927.682 512.427 928.489 512.929 929.296 512.741C932.526 511.987 935.73 511.168 938.906 510.284C939.704 510.062 940.171 509.234 939.949 508.436C939.948 508.435 939.948 508.433 939.948 508.432C945.329 506.896 950.628 505.175 955.837 503.274C955.838 503.276 955.839 503.277 955.839 503.279C956.128 504.055 956.992 504.45 957.768 504.161C960.874 503.005 963.947 501.786 966.987 500.505C967.75 500.183 968.108 499.304 967.786 498.54C967.786 498.539 967.785 498.537 967.785 498.536C972.921 496.332 977.958 493.95 982.888 491.398C982.889 491.4 982.89 491.401 982.891 491.403C983.276 492.136 984.183 492.418 984.916 492.032C987.849 490.49 990.743 488.888 993.597 487.228C994.313 486.812 994.556 485.894 994.14 485.178C994.139 485.176 994.138 485.175 994.137 485.173C998.947 482.334 1003.64 479.327 1008.21 476.162C1008.21 476.164 1008.21 476.165 1008.21 476.166C1008.69 476.844 1009.62 477.008 1010.3 476.531C1013.01 474.628 1015.68 472.669 1018.29 470.656C1018.95 470.152 1019.07 469.21 1018.57 468.553C1018.57 468.552 1018.57 468.55 1018.57 468.549C1022.97 465.12 1027.24 461.536 1031.36 457.806C1031.36 457.808 1031.37 457.809 1031.37 457.81C1031.93 458.421 1032.87 458.463 1033.49 457.903C1035.93 455.668 1038.32 453.382 1040.65 451.047C1041.24 450.461 1041.24 449.511 1040.66 448.925C1040.65 448.924 1040.65 448.923 1040.65 448.922C1044.57 444.956 1048.34 440.85 1051.95 436.611C1051.95 436.612 1051.95 436.613 1051.95 436.614C1052.59 437.147 1053.53 437.065 1054.07 436.431C1056.19 433.898 1058.26 431.32 1060.28 428.697C1060.78 428.04 1060.66 427.098 1060 426.594C1060 426.593 1060 426.592 1060 426.591C1063.36 422.151 1066.56 417.585 1069.58 412.903C1069.58 412.904 1069.58 412.904 1069.58 412.905C1070.28 413.35 1071.21 413.144 1071.66 412.445C1073.43 409.655 1075.14 406.825 1076.79 403.956C1077.2 403.237 1076.96 402.32 1076.24 401.908C1076.24 401.907 1076.24 401.906 1076.23 401.905C1078.97 397.064 1081.53 392.114 1083.9 387.063C1083.9 387.063 1083.91 387.064 1083.91 387.065C1084.66 387.411 1085.55 387.083 1085.9 386.33C1087.28 383.33 1088.6 380.295 1089.85 377.227C1090.16 376.46 1089.79 375.585 1089.02 375.272C1089.02 375.272 1089.02 375.271 1089.02 375.27C1091.07 370.112 1092.94 364.861 1094.61 359.525C1094.61 359.526 1094.61 359.526 1094.61 359.527C1095.4 359.768 1096.24 359.321 1096.48 358.528C1097.44 355.371 1098.33 352.184 1099.15 348.97C1099.36 348.167 1098.87 347.351 1098.07 347.146C1098.07 347.145 1098.07 347.145 1098.07 347.145C1099.4 341.763 1100.53 336.305 1101.45 330.779C1101.45 330.779 1101.46 330.78 1101.46 330.78C1102.28 330.911 1103.05 330.353 1103.18 329.535C1103.7 326.282 1104.14 323.005 1104.52 319.707C1104.61 318.884 1104.02 318.141 1103.19 318.048C1103.19 318.048 1103.19 318.048 1103.19 318.048C1103.77 312.55 1104.15 306.994 1104.32 301.386C1104.32 301.386 1104.32 301.386 1104.32 301.386C1105.15 301.404 1105.84 300.748 1105.85 299.92C1105.89 298.265 1105.91 296.606 1105.91 294.943C1105.91 293.279 1105.89 291.62 1105.85 289.965Z" stroke="white" stroke-width="3" stroke-linecap="round" stroke-linejoin="round" stroke-dasharray="10 20"/>
<g clip-path="url(#clip0_121_9468)">
<path d="M729.402 75.9433H724.673V77.5555H729.402V75.9433ZM731.112 73.3314L729.442 71.6225L728.33 72.7591L730.001 74.4681L731.112 73.3314ZM734.131 67.8821H732.555V72.7188H734.131V67.8821ZM738.355 72.7591L737.244 71.6225L735.573 73.3314L736.684 74.4681L738.355 72.7591ZM737.283 75.9433V77.5555H742.012V75.9433H737.283ZM733.343 74.331C732.716 74.331 732.114 74.5858 731.671 75.0393C731.228 75.4929 730.978 76.108 730.978 76.7494C730.978 77.3908 731.228 78.0059 731.671 78.4594C732.114 78.9129 732.716 79.1677 733.343 79.1677C733.97 79.1677 734.571 78.9129 735.015 78.4594C735.458 78.0059 735.707 77.3908 735.707 76.7494C735.707 76.108 735.458 75.4929 735.015 75.0393C734.571 74.5858 733.97 74.331 733.343 74.331ZM735.573 80.1673L737.244 81.8763L738.355 80.7397L736.684 79.0307L735.573 80.1673ZM728.33 80.7397L729.442 81.8763L731.112 80.1673L730.001 79.0307L728.33 80.7397ZM732.555 85.6167H734.131V80.78H732.555V85.6167Z" fill="white" fill-opacity="0.2"/>
</g>
<path d="M991.987 74.8673H987.258V76.4796H991.987V74.8673ZM993.697 72.2555L992.026 70.5465L990.915 71.6832L992.586 73.3921L993.697 72.2555ZM996.716 66.8062H995.139V71.6429H996.716V66.8062ZM1000.94 71.6832L999.829 70.5465L998.158 72.2555L999.269 73.3921L1000.94 71.6832ZM999.868 74.8673V76.4796H1004.6V74.8673H999.868ZM995.928 73.2551C995.301 73.2551 994.699 73.5099 994.256 73.9634C993.812 74.417 993.563 75.0321 993.563 75.6735C993.563 76.3148 993.812 76.93 994.256 77.3835C994.699 77.837 995.301 78.0918 995.928 78.0918C996.555 78.0918 997.156 77.837 997.599 77.3835C998.043 76.93 998.292 76.3148 998.292 75.6735C998.292 75.0321 998.043 74.417 997.599 73.9634C997.156 73.5099 996.555 73.2551 995.928 73.2551ZM998.158 79.0914L999.829 80.8004L1000.94 79.6637L999.269 77.9548L998.158 79.0914ZM990.915 79.6637L992.026 80.8004L993.697 79.0914L992.586 77.9548L990.915 79.6637ZM995.139 84.5408H996.716V79.704H995.139V84.5408Z" fill="white" fill-opacity="0.2"/>
<g clip-path="url(#clip1_121_9468)">
<path d="M1057.63 222.123H1052.9V223.735H1057.63V222.123ZM1059.34 219.511L1057.67 217.802L1056.56 218.939L1058.23 220.648L1059.34 219.511ZM1062.36 214.062H1060.79V218.898H1062.36V214.062ZM1066.59 218.939L1065.47 217.802L1063.8 219.511L1064.92 220.648L1066.59 218.939ZM1065.51 222.123V223.735H1070.24V222.123H1065.51ZM1061.57 220.51C1060.95 220.51 1060.35 220.765 1059.9 221.219C1059.46 221.672 1059.21 222.287 1059.21 222.929C1059.21 223.57 1059.46 224.185 1059.9 224.639C1060.35 225.092 1060.95 225.347 1061.57 225.347C1062.2 225.347 1062.8 225.092 1063.25 224.639C1063.69 224.185 1063.94 223.57 1063.94 222.929C1063.94 222.287 1063.69 221.672 1063.25 221.219C1062.8 220.765 1062.2 220.51 1061.57 220.51ZM1063.8 226.347L1065.47 228.056L1066.59 226.919L1064.92 225.21L1063.8 226.347ZM1056.56 226.919L1057.67 228.056L1059.34 226.347L1058.23 225.21L1056.56 226.919ZM1060.79 231.796H1062.36V226.959H1060.79V231.796Z" fill="white" fill-opacity="0.2"/>
</g>
<g clip-path="url(#clip2_121_9468)">
<path d="M830.653 529.521H825.924V531.133H830.653V529.521ZM832.363 526.909L830.693 525.2L829.581 526.336L831.252 528.045L832.363 526.909ZM835.382 521.459H833.806V526.296H835.382V521.459ZM839.606 526.336L838.495 525.2L836.824 526.909L837.935 528.045L839.606 526.336ZM838.534 529.521V531.133H843.263V529.521H838.534ZM834.594 527.908C833.967 527.908 833.365 528.163 832.922 528.617C832.478 529.07 832.229 529.685 832.229 530.327C832.229 530.968 832.478 531.583 832.922 532.037C833.365 532.49 833.967 532.745 834.594 532.745C835.221 532.745 835.822 532.49 836.266 532.037C836.709 531.583 836.958 530.968 836.958 530.327C836.958 529.685 836.709 529.07 836.266 528.617C835.822 528.163 835.221 527.908 834.594 527.908ZM836.824 533.745L838.495 535.454L839.606 534.317L837.935 532.608L836.824 533.745ZM829.581 534.317L830.693 535.454L832.363 533.745L831.252 532.608L829.581 534.317ZM833.806 539.194H835.382V534.357H833.806V539.194Z" fill="white" fill-opacity="0.2"/>
</g>
<g clip-path="url(#clip3_121_9468)">
<path d="M679.333 385.493H674.604V387.105H679.333V385.493ZM681.043 382.881L679.372 381.172L678.261 382.309L679.932 384.018L681.043 382.881ZM684.062 377.432H682.486V382.269H684.062V377.432ZM688.286 382.309L687.175 381.172L685.504 382.881L686.615 384.018L688.286 382.309ZM687.214 385.493V387.105H691.943V385.493H687.214ZM683.274 383.881C682.647 383.881 682.045 384.136 681.602 384.589C681.158 385.043 680.909 385.658 680.909 386.299C680.909 386.941 681.158 387.556 681.602 388.009C682.045 388.463 682.647 388.718 683.274 388.718C683.901 388.718 684.502 388.463 684.946 388.009C685.389 387.556 685.638 386.941 685.638 386.299C685.638 385.658 685.389 385.043 684.946 384.589C684.502 384.136 683.901 383.881 683.274 383.881ZM685.504 389.717L687.175 391.426L688.286 390.289L686.615 388.581L685.504 389.717ZM678.261 390.289L679.372 391.426L681.043 389.717L679.932 388.581L678.261 390.289ZM682.486 395.166H684.062V390.33H682.486V395.166Z" fill="white" fill-opacity="0.2"/>
</g>
<path d="M1032.53 256.294L1028.88 255.118L1027.87 260.358L1025.44 259.574L1026.45 254.334L1022.81 253.158L1023.48 249.664L1027.13 250.84L1028.14 245.6L1030.57 246.384L1029.56 251.624L1033.2 252.8L1032.53 256.294Z" fill="white" fill-opacity="0.2"/>
<path d="M1124.21 350.886L1122.21 346.14L1118.55 348.717L1117.22 345.552L1120.89 342.975L1118.9 338.229L1121.34 336.511L1123.33 341.257L1127 338.68L1128.33 341.844L1124.66 344.422L1126.65 349.168L1124.21 350.886Z" fill="white" fill-opacity="0.2"/>
<rect x="584" y="63" width="164.672" height="326.104" rx="12" fill="#38418E"/>
<rect x="592.901" y="63" width="164.672" height="326.104" rx="8" fill="#7A86EE"/>
<path d="M592.901 152.959C592.901 152.959 603.897 275.103 657.042 332.104C710.187 389.104 717.518 389.104 717.518 389.104H600.901C596.483 389.104 592.901 385.522 592.901 381.104V152.959Z" fill="#6672E2"/>
<rect x="602.802" y="72.7441" width="147.095" height="276.625" rx="3" fill="white" stroke="black" stroke-width="2"/>
<line x1="656.597" y1="84.2371" x2="696.103" y2="84.2371" stroke="url(#paint0_linear_121_9468)" stroke-width="5" stroke-linecap="round"/>
<ellipse cx="637.407" cy="137.965" rx="22.2529" ry="24.9888" fill="#7A86EE"/>
<ellipse cx="637.407" cy="200.438" rx="22.2529" ry="24.9888" fill="#7A86EE"/>
<path d="M659.66 200.438C659.66 197.156 659.084 193.907 657.966 190.875C656.848 187.843 655.209 185.088 653.142 182.768C651.076 180.448 648.623 178.607 645.923 177.351C643.223 176.095 640.329 175.449 637.407 175.449L637.407 200.438H659.66Z" fill="#38418E"/>
<path d="M653.126 120.276C651.062 117.958 648.611 116.12 645.913 114.866C643.215 113.613 640.323 112.968 637.403 112.97L637.391 137.946L653.126 120.276Z" fill="#38418E"/>
<ellipse cx="637.407" cy="137.964" rx="13.3518" ry="14.9933" fill="white"/>
<ellipse cx="637.407" cy="200.434" rx="13.3518" ry="14.9933" fill="white"/>
<path d="M648.034 260.41C648.034 270.54 640.732 278.651 631.844 278.651C622.955 278.651 615.654 270.54 615.654 260.41C615.654 250.279 622.955 242.168 631.844 242.168C640.732 242.168 648.034 250.279 648.034 260.41Z" stroke="#7A86EE"/>
<ellipse cx="631.844" cy="260.405" rx="13.3518" ry="14.9933" fill="#7A86EE"/>
<ellipse cx="631.844" cy="300.388" rx="14.4644" ry="16.2427" fill="#7A86EE"/>
<g clip-path="url(#clip4_121_9468)">
<path d="M635.926 292.771C636.721 291.878 638.118 291.877 638.913 292.771L639.561 293.498C640.236 294.256 640.237 295.399 639.562 296.158L629.976 306.936C629.181 307.83 627.783 307.83 626.987 306.936L623.013 302.468C622.339 301.71 622.339 300.566 623.014 299.808L623.662 299.08C624.458 298.187 625.854 298.187 626.65 299.08L626.988 299.46C627.783 300.353 629.18 300.353 629.975 299.459L635.926 292.771ZM638.041 294.274C637.71 293.9 637.127 293.899 636.795 294.273L629.966 301.955C629.174 302.846 627.784 302.85 626.986 301.965L625.756 300.6C625.434 300.243 624.874 300.239 624.548 300.593V300.593C624.262 300.902 624.258 301.377 624.539 301.691L626.988 304.437C627.784 305.329 629.179 305.329 629.974 304.436L638.039 295.379C638.319 295.064 638.32 294.59 638.041 294.274V294.274Z" fill="white"/>
</g>
<path d="M636.866 252.041C637.657 250.85 639.407 250.849 640.198 252.04L641.122 253.431C641.568 254.101 641.568 254.973 641.123 255.644L631.261 270.503C630.47 271.695 628.719 271.695 627.928 270.503L623.677 264.099C623.232 263.429 623.232 262.557 623.678 261.886L624.606 260.49C625.396 259.301 627.141 259.301 627.931 260.49V260.49C628.721 261.679 630.467 261.678 631.257 260.489L636.866 252.041ZM639.304 254.024C638.938 253.469 638.124 253.468 637.756 254.022L631.25 263.83C630.462 265.018 628.719 265.024 627.923 263.841L627.017 262.492C626.657 261.958 625.873 261.954 625.508 262.484V262.484C625.296 262.791 625.293 263.196 625.5 263.507L627.928 267.155C628.72 268.344 630.468 268.343 631.259 267.153L639.303 255.049C639.509 254.739 639.51 254.335 639.304 254.024V254.024Z" fill="white"/>
<path d="M1174.28 514.455C1175.07 513.264 1176.82 513.264 1177.61 514.455L1178.53 515.845C1178.98 516.516 1178.98 517.388 1178.53 518.058L1168.67 532.917C1167.88 534.109 1166.13 534.109 1165.34 532.917L1161.09 526.514C1160.64 525.843 1160.64 524.971 1161.09 524.301L1162.01 522.904C1162.8 521.716 1164.55 521.716 1165.34 522.904V522.904C1166.13 524.093 1167.88 524.093 1168.67 522.904L1174.28 514.455ZM1176.71 516.438C1176.35 515.883 1175.53 515.882 1175.16 516.437L1168.66 526.244C1167.87 527.432 1166.13 527.438 1165.33 526.255L1164.43 524.907C1164.07 524.372 1163.28 524.368 1162.92 524.898V524.898C1162.7 525.205 1162.7 525.611 1162.91 525.922L1165.34 529.569C1166.13 530.758 1167.88 530.758 1168.67 529.568L1176.71 517.463C1176.92 517.153 1176.92 516.749 1176.71 516.438V516.438Z" fill="white"/>
<line x1="672.286" y1="125.22" x2="701.553" y2="125.22" stroke="#6672E2" stroke-width="3" stroke-linecap="round"/>
<line x1="672.286" y1="132.714" x2="722.694" y2="132.714" stroke="#6672E2" stroke-width="3" stroke-linecap="round"/>
<line x1="672.286" y1="140.208" x2="713.792" y2="140.208" stroke="#6672E2" stroke-width="3" stroke-linecap="round"/>
<line x1="672.286" y1="147.71" x2="729.369" y2="147.71" stroke="#6672E2" stroke-width="3" stroke-linecap="round"/>
<line x1="672.286" y1="187.691" x2="701.553" y2="187.691" stroke="#6672E2" stroke-width="3" stroke-linecap="round"/>
<line x1="672.286" y1="195.184" x2="722.694" y2="195.184" stroke="#6672E2" stroke-width="3" stroke-linecap="round"/>
<line x1="672.286" y1="202.687" x2="713.792" y2="202.687" stroke="#6672E2" stroke-width="3" stroke-linecap="round"/>
<line x1="672.286" y1="210.18" x2="729.369" y2="210.18" stroke="#6672E2" stroke-width="3" stroke-linecap="round"/>
<line x1="653.759" y1="254.906" x2="705.617" y2="254.906" stroke="#38418E" stroke-width="6" stroke-linecap="round"/>
<line x1="653.759" y1="267.4" x2="695.603" y2="267.4" stroke="#7A86EE" stroke-width="6" stroke-linecap="round"/>
<line x1="653.759" y1="296.137" x2="695.603" y2="296.137" stroke="#7A86EE" stroke-width="6" stroke-linecap="round"/>
<line x1="653.759" y1="307.382" x2="705.617" y2="307.382" stroke="#38418E" stroke-width="6" stroke-linecap="round"/>
<path d="M837.122 260.119C837.881 255.25 842.075 251.66 847.003 251.66H1352.18C1362.59 251.66 1370.55 260.936 1368.98 271.23L1318.53 601.17C1316.96 611.423 1308.14 618.995 1297.77 618.995H792.838C786.701 618.995 782.012 613.518 782.957 607.454L837.122 260.119Z" fill="#38418E"/>
<path d="M824.883 260.119C825.642 255.25 829.836 251.66 834.763 251.66H1349.17C1355.3 251.66 1359.99 257.137 1359.05 263.201L1304.88 610.536C1304.12 615.405 1299.93 618.995 1295 618.995H780.599C774.462 618.995 769.773 613.518 770.718 607.454L824.883 260.119Z" fill="#6672E2"/>
<line x1="485.743" y1="618.993" x2="1254.6" y2="618.993" stroke="#5963B9" stroke-width="10" stroke-linecap="round"/>
<path d="M882.409 626.7H1293.96C1293.96 626.7 1293.68 634.029 1291.98 638.771C1290.28 643.512 1285.18 645.237 1285.18 645.237H882.409V626.7Z" fill="#5963B9"/>
<path d="M882.409 618.999H1293.96C1293.96 618.999 1294.52 624.559 1293.29 630.12C1292.05 635.681 1285.18 637.535 1285.18 637.535H882.409V618.999Z" fill="#5963B9"/>
<rect x="584.219" y="618.999" width="132.405" height="13.7438" fill="#5963B9"/>
<path d="M459.561 633.643C456.776 627.541 456.265 618.999 456.265 618.999H609.447L615.018 626.931H695.786L701.357 618.999H885.175C885.175 618.999 884.573 630.592 886.801 635.474C889.03 640.355 896.873 645.237 896.873 645.237H470.747C470.747 645.237 462.347 639.745 459.561 633.643Z" fill="#6672E2"/>
<path d="M791.329 596.007L841.034 272.155H1338.42L1287.63 596.007H791.329Z" fill="white" stroke="black" stroke-width="6"/>
<rect x="965.857" y="626.491" width="36.7174" height="9.99551" rx="3" fill="#38418E"/>
<rect x="1015.93" y="626.491" width="36.7174" height="9.99551" rx="3" fill="#38418E"/>
<rect x="1235.12" y="625.241" width="22.2529" height="7.49664" rx="3" fill="#38418E"/>
<ellipse rx="52.2944" ry="58.542" transform="matrix(1 0 -0.154349 0.988016 908.567 377.864)" fill="#7A86EE"/>
<ellipse rx="52.2944" ry="58.542" transform="matrix(1 0 -0.154349 0.988016 885.881 523.077)" fill="#7A86EE"/>
<path d="M938.176 523.077C939.362 515.481 939.185 507.959 937.653 500.942C936.121 493.924 933.265 487.548 929.249 482.177C925.232 476.806 920.132 472.546 914.242 469.639C908.351 466.732 901.785 465.236 894.917 465.236L885.881 523.077H938.176Z" fill="#38418E"/>
<path d="M951.127 337.506C947.167 332.14 942.135 327.884 936.317 324.982C930.499 322.081 924.01 320.589 917.22 320.593L908.161 378.411L951.127 337.506Z" fill="#38418E"/>
<ellipse rx="31.1541" ry="35.4989" transform="matrix(1 0 -0.154349 0.988016 908.471 378.476)" fill="white"/>
<ellipse rx="31.1541" ry="34.8761" transform="matrix(1 0 -0.154349 0.988016 885.881 523.076)" fill="white"/>
<line x1="1.5" y1="-1.5" x2="74.16" y2="-1.5" transform="matrix(1 0 -0.154349 0.988016 990.49 352.021)" stroke="#38418E" stroke-width="3" stroke-linecap="round"/>
<line x1="1.5" y1="-1.5" x2="123.117" y2="-1.5" transform="matrix(1 0 -0.154349 0.988016 987.798 369.25)" stroke="#38418E" stroke-width="3" stroke-linecap="round"/>
<line x1="1.5" y1="-1.5" x2="100.864" y2="-1.5" transform="matrix(1 0 -0.154349 0.988016 984.915 387.71)" stroke="#38418E" stroke-width="3" stroke-linecap="round"/>
<line x1="1.5" y1="-1.5" x2="137.581" y2="-1.5" transform="matrix(1 0 -0.154349 0.988016 982.223 404.936)" stroke="#38418E" stroke-width="3" stroke-linecap="round"/>
<line x1="1.5" y1="-1.5" x2="74.16" y2="-1.5" transform="matrix(1 0 -0.154349 0.988016 967.804 497.236)" stroke="#38418E" stroke-width="3" stroke-linecap="round"/>
<line x1="1.5" y1="-1.5" x2="123.117" y2="-1.5" transform="matrix(1 0 -0.154349 0.988016 965.113 514.463)" stroke="#38418E" stroke-width="3" stroke-linecap="round"/>
<line x1="1.5" y1="-1.5" x2="100.864" y2="-1.5" transform="matrix(1 0 -0.154349 0.988016 962.421 531.691)" stroke="#38418E" stroke-width="3" stroke-linecap="round"/>
<line x1="1.5" y1="-1.5" x2="134.243" y2="-1.5" transform="matrix(1 0 -0.154349 0.988016 959.729 548.927)" stroke="#38418E" stroke-width="3" stroke-linecap="round"/>
<path d="M1177.74 500.651C1175.24 515.244 1162.87 526.948 1150.22 526.948C1137.58 526.948 1129.21 515.244 1131.71 500.651C1134.21 486.059 1146.59 474.355 1159.23 474.355C1171.88 474.355 1180.24 486.059 1177.74 500.651Z" stroke="#7A86EE"/>
<ellipse rx="18.8097" ry="21.7436" transform="matrix(1 0 -0.168865 0.985639 1154.73 500.645)" fill="#7A86EE"/>
<ellipse rx="20.3772" ry="23.5556" transform="matrix(1 0 -0.168865 0.985639 1144.94 557.797)" fill="#7A86EE"/>
<g clip-path="url(#clip5_121_9468)">
<path d="M1153.26 546.237C1154.21 545.327 1155.64 545.327 1156.28 546.236L1157.93 548.562C1158.45 549.302 1158.26 550.399 1157.49 551.14L1139.99 567.833C1139.04 568.743 1137.61 568.743 1136.97 567.833L1131.55 560.16C1131.03 559.419 1131.22 558.321 1132 557.581L1134.44 555.255C1135.39 554.346 1136.82 554.346 1137.46 555.255L1138.8 557.146C1139.44 558.055 1140.87 558.055 1141.82 557.145L1153.26 546.237ZM1155.18 549.085C1154.8 548.542 1153.95 548.541 1153.38 549.083L1141.2 560.709C1140.26 561.615 1138.83 561.62 1138.18 560.719L1136.33 558.126C1135.95 557.607 1135.14 557.602 1134.58 558.116V558.116C1134.11 558.547 1134 559.198 1134.31 559.636L1137.58 564.259C1138.22 565.167 1139.65 565.166 1140.6 564.258L1154.92 550.614C1155.38 550.175 1155.49 549.525 1155.18 549.085V549.085Z" fill="white"/>
</g>
<g clip-path="url(#clip6_121_9468)">
<path d="M1164.31 490.472C1165.26 489.562 1166.69 489.562 1167.33 490.471L1168.98 492.796C1169.5 493.537 1169.31 494.634 1168.54 495.375L1151.04 512.068C1150.09 512.978 1148.66 512.978 1148.02 512.068L1142.6 504.395C1142.08 503.654 1142.27 502.556 1143.05 501.816L1145.49 499.49C1146.44 498.581 1147.87 498.581 1148.51 499.49L1149.85 501.381C1150.49 502.29 1151.92 502.29 1152.87 501.38L1164.31 490.472ZM1166.23 493.32C1165.85 492.777 1165 492.776 1164.43 493.318L1152.25 504.944C1151.3 505.85 1149.88 505.855 1149.23 504.954L1147.38 502.361C1147 501.842 1146.19 501.837 1145.63 502.351V502.351C1145.16 502.782 1145.05 503.433 1145.36 503.871L1148.63 508.494C1149.27 509.402 1150.7 509.401 1151.65 508.493L1165.97 494.848C1166.43 494.41 1166.54 493.76 1166.23 493.32V493.32Z" fill="white"/>
</g>
<line x1="3" y1="-3" x2="78.5088" y2="-3" transform="matrix(1 0 -0.168865 0.985639 1181.99 497.075)" stroke="#38418E" stroke-width="6" stroke-linecap="round"/>
<path d="M1145.51 439.125L1271.83 439.125" stroke="#38418E" stroke-width="6" stroke-linecap="round"/>
<path d="M1142.48 449.018H1249.29" stroke="#6672E2" stroke-width="6" stroke-linecap="round"/>
<path d="M1141.07 458.949H1237.87" stroke="#6672E2" stroke-width="6" stroke-linecap="round"/>
<line x1="3" y1="-3" x2="64.4015" y2="-3" transform="matrix(1 0 -0.168865 0.985639 1178.93 514.94)" stroke="#7A86EE" stroke-width="6" stroke-linecap="round"/>
<line x1="3" y1="-3" x2="64.4015" y2="-3" transform="matrix(1 0 -0.168865 0.985639 1171.89 556.015)" stroke="#7A86EE" stroke-width="6" stroke-linecap="round"/>
<line x1="3" y1="-3" x2="78.5088" y2="-3" transform="matrix(1 0 -0.168865 0.985639 1169.13 572.092)" stroke="#38418E" stroke-width="6" stroke-linecap="round"/>
<path d="M1164.53 369.903L1191.22 347.413L1178.96 418.973H1156.12L1164.53 369.903Z" fill="#5963B9"/>
<path d="M1226.31 377.158L1253.53 351.601L1241.97 419.072H1219.13L1226.31 377.158Z" fill="#5963B9"/>
<path d="M1263.39 344.688L1290.61 319.13L1274.13 418.776H1251.29L1263.39 344.688Z" fill="#38418E"/>
<path d="M1199.04 353.699L1215.93 388.457L1210.67 419.126H1187.83L1199.04 353.699Z" fill="#5963B9"/>
<path d="M1164.51 355.959C1163.46 356.854 1163.34 358.432 1164.23 359.483C1165.13 360.534 1166.71 360.659 1167.76 359.763L1164.51 355.959ZM1196.18 332.247L1198.4 331.107C1198.05 330.427 1197.41 329.943 1196.66 329.795C1195.91 329.647 1195.13 329.849 1194.55 330.345L1196.18 332.247ZM1217.32 373.479L1215.09 374.62C1215.45 375.317 1216.11 375.806 1216.88 375.941C1217.66 376.077 1218.45 375.843 1219.02 375.309L1217.32 373.479ZM1280.74 309.757L1280.24 307.308L1276.95 307.979L1278.53 310.936L1280.74 309.757ZM1283.52 314.755L1281.37 316.031L1283.63 319.846L1285.72 315.933L1283.52 314.755ZM1286.86 308.508L1289.06 309.686L1291.57 304.994L1286.36 306.059L1286.86 308.508ZM1167.76 359.763L1197.8 334.15L1194.55 330.345L1164.51 355.959L1167.76 359.763ZM1193.95 333.388L1215.09 374.62L1219.54 372.338L1198.4 331.107L1193.95 333.388ZM1219.02 375.309L1284.11 314.711L1280.7 311.051L1215.61 371.649L1219.02 375.309ZM1284.61 311.703L1282.94 308.579L1278.53 310.936L1280.2 314.059L1284.61 311.703ZM1280.26 314.157L1281.37 316.031L1285.67 313.479L1284.56 311.605L1280.26 314.157ZM1219.02 375.306L1288.56 310.335L1285.15 306.681L1215.61 371.652L1219.02 375.306ZM1286.36 306.059L1280.24 307.308L1281.24 312.207L1287.36 310.958L1286.36 306.059ZM1284.65 307.33L1281.31 313.577L1285.72 315.933L1289.06 309.686L1284.65 307.33Z" fill="#6672E2"/>
<path d="M844.022 276.647H1334.14L1331.68 291.371H841.797L844.022 276.647Z" fill="#E2E2E2"/>
<ellipse rx="4.3524" ry="4.97617" transform="matrix(1 0 -0.165242 0.986253 1290 284.054)" fill="#757272"/>
<ellipse rx="4.3524" ry="4.97617" transform="matrix(1 0 -0.165242 0.986253 1303.05 284.054)" fill="#757272"/>
<ellipse rx="4.3524" ry="4.97617" transform="matrix(1 0 -0.165242 0.986253 1316.11 284.054)" fill="#757272"/>
<line x1="400.907" y1="648.979" x2="1327.19" y2="648.979" stroke="white" stroke-width="5" stroke-linecap="round"/>
<line x1="364.19" y1="648.979" x2="389.231" y2="648.979" stroke="white" stroke-width="5" stroke-linecap="round"/>
<line x1="1336.64" y1="648.979" x2="1361.68" y2="648.979" stroke="white" stroke-width="5" stroke-linecap="round"/>
<line x1="1371.14" y1="648.979" x2="1377.26" y2="648.979" stroke="white" stroke-width="5" stroke-linecap="round"/>
<line x1="347.5" y1="648.979" x2="353.626" y2="648.979" stroke="white" stroke-width="5" stroke-linecap="round"/>
<path d="M41.095 202V155.915H52.73V202H41.095ZM50.325 202V192.185H75.285V202H50.325ZM50.325 183.28V173.725H72.945V183.28H50.325ZM50.325 165.73V155.915H74.895V165.73H50.325ZM79.5435 190.235V180.55H103.009V190.235H79.5435ZM133.977 202.715C130.467 202.715 127.217 202.13 124.227 200.96C121.237 199.747 118.616 198.078 116.362 195.955C114.152 193.788 112.419 191.253 111.162 188.35C109.949 185.447 109.342 182.305 109.342 178.925C109.342 175.502 109.949 172.36 111.162 169.5C112.419 166.597 114.152 164.083 116.362 161.96C118.616 159.837 121.216 158.168 124.162 156.955C127.152 155.742 130.381 155.135 133.847 155.135C137.487 155.135 140.759 155.72 143.662 156.89C146.566 158.017 149.122 159.598 151.332 161.635L143.532 169.435C142.449 168.222 141.106 167.268 139.502 166.575C137.899 165.882 136.014 165.535 133.847 165.535C131.984 165.535 130.272 165.838 128.712 166.445C127.196 167.052 125.874 167.962 124.747 169.175C123.621 170.345 122.732 171.753 122.082 173.4C121.476 175.047 121.172 176.888 121.172 178.925C121.172 180.962 121.476 182.803 122.082 184.45C122.732 186.097 123.621 187.527 124.747 188.74C125.874 189.91 127.196 190.82 128.712 191.47C130.272 192.077 131.984 192.38 133.847 192.38C136.014 192.38 137.921 192.055 139.567 191.405C141.214 190.712 142.622 189.737 143.792 188.48L151.592 196.28C149.339 198.317 146.782 199.898 143.922 201.025C141.106 202.152 137.791 202.715 133.977 202.715ZM170.873 202.715C167.449 202.715 164.394 202 161.708 200.57C159.064 199.097 156.963 197.103 155.403 194.59C153.843 192.033 153.063 189.173 153.063 186.01C153.063 182.847 153.821 180.03 155.338 177.56C156.898 175.047 159.021 173.075 161.708 171.645C164.394 170.172 167.428 169.435 170.808 169.435C174.188 169.435 177.199 170.172 179.843 171.645C182.529 173.075 184.653 175.047 186.213 177.56C187.773 180.03 188.553 182.847 188.553 186.01C188.553 189.173 187.773 192.033 186.213 194.59C184.696 197.103 182.594 199.097 179.908 200.57C177.264 202 174.253 202.715 170.873 202.715ZM170.808 192.64C172.064 192.64 173.148 192.38 174.058 191.86C175.011 191.297 175.748 190.517 176.268 189.52C176.788 188.523 177.048 187.375 177.048 186.075C177.048 184.775 176.766 183.648 176.203 182.695C175.683 181.698 174.968 180.94 174.058 180.42C173.148 179.857 172.064 179.575 170.808 179.575C169.594 179.575 168.511 179.857 167.558 180.42C166.604 180.983 165.868 181.763 165.348 182.76C164.828 183.713 164.568 184.84 164.568 186.14C164.568 187.397 164.828 188.523 165.348 189.52C165.868 190.517 166.604 191.297 167.558 191.86C168.511 192.38 169.594 192.64 170.808 192.64ZM193.04 202V170.215H204.35V202H193.04ZM212.995 202V183.605C212.995 182.262 212.583 181.222 211.76 180.485C210.936 179.705 209.918 179.315 208.705 179.315C207.838 179.315 207.08 179.488 206.43 179.835C205.78 180.182 205.26 180.68 204.87 181.33C204.523 181.937 204.35 182.695 204.35 183.605L199.93 181.85C199.93 179.293 200.493 177.105 201.62 175.285C202.746 173.465 204.263 172.057 206.17 171.06C208.076 170.063 210.243 169.565 212.67 169.565C214.836 169.565 216.786 170.085 218.52 171.125C220.296 172.122 221.705 173.53 222.745 175.35C223.785 177.17 224.305 179.315 224.305 181.785V202H212.995ZM232.95 202V183.605C232.95 182.262 232.538 181.222 231.715 180.485C230.891 179.705 229.873 179.315 228.66 179.315C227.836 179.315 227.078 179.488 226.385 179.835C225.735 180.182 225.215 180.68 224.825 181.33C224.478 181.937 224.305 182.695 224.305 183.605L217.675 183.28C217.761 180.42 218.39 177.972 219.56 175.935C220.73 173.898 222.333 172.338 224.37 171.255C226.45 170.128 228.79 169.565 231.39 169.565C233.86 169.565 236.07 170.085 238.02 171.125C239.97 172.165 241.486 173.682 242.57 175.675C243.696 177.625 244.26 179.965 244.26 182.695V202H232.95ZM250.169 202V170.215H261.479V202H250.169ZM270.124 202V183.605C270.124 182.262 269.712 181.222 268.889 180.485C268.065 179.705 267.047 179.315 265.834 179.315C264.967 179.315 264.209 179.488 263.559 179.835C262.909 180.182 262.389 180.68 261.999 181.33C261.652 181.937 261.479 182.695 261.479 183.605L257.059 181.85C257.059 179.293 257.622 177.105 258.749 175.285C259.875 173.465 261.392 172.057 263.299 171.06C265.205 170.063 267.372 169.565 269.799 169.565C271.965 169.565 273.915 170.085 275.649 171.125C277.425 172.122 278.834 173.53 279.874 175.35C280.914 177.17 281.434 179.315 281.434 181.785V202H270.124ZM290.079 202V183.605C290.079 182.262 289.667 181.222 288.844 180.485C288.02 179.705 287.002 179.315 285.789 179.315C284.965 179.315 284.207 179.488 283.514 179.835C282.864 180.182 282.344 180.68 281.954 181.33C281.607 181.937 281.434 182.695 281.434 183.605L274.804 183.28C274.89 180.42 275.519 177.972 276.689 175.935C277.859 173.898 279.462 172.338 281.499 171.255C283.579 170.128 285.919 169.565 288.519 169.565C290.989 169.565 293.199 170.085 295.149 171.125C297.099 172.165 298.615 173.682 299.699 175.675C300.825 177.625 301.389 179.965 301.389 182.695V202H290.079ZM323.352 202.715C319.799 202.715 316.657 202.022 313.927 200.635C311.197 199.205 309.052 197.233 307.492 194.72C305.932 192.207 305.152 189.325 305.152 186.075C305.152 182.868 305.911 180.03 307.427 177.56C308.944 175.047 311.002 173.075 313.602 171.645C316.246 170.172 319.214 169.435 322.507 169.435C325.714 169.435 328.552 170.128 331.022 171.515C333.536 172.858 335.486 174.743 336.872 177.17C338.302 179.553 339.017 182.283 339.017 185.36C339.017 186.01 338.974 186.682 338.887 187.375C338.844 188.025 338.714 188.783 338.497 189.65L310.482 189.78V182.5L334.012 182.305L328.942 185.49C328.899 183.713 328.639 182.262 328.162 181.135C327.686 179.965 326.992 179.077 326.082 178.47C325.172 177.863 324.024 177.56 322.637 177.56C321.207 177.56 319.972 177.907 318.932 178.6C317.892 179.293 317.091 180.268 316.527 181.525C315.964 182.782 315.682 184.298 315.682 186.075C315.682 187.895 315.986 189.455 316.592 190.755C317.199 192.012 318.066 192.965 319.192 193.615C320.319 194.265 321.706 194.59 323.352 194.59C324.912 194.59 326.277 194.33 327.447 193.81C328.661 193.29 329.744 192.488 330.697 191.405L336.612 197.32C335.052 199.097 333.146 200.44 330.892 201.35C328.682 202.26 326.169 202.715 323.352 202.715ZM343.289 202V170.215H354.599V202H343.289ZM354.599 184.71L349.529 180.42C350.785 176.823 352.454 174.115 354.534 172.295C356.614 170.475 359.322 169.565 362.659 169.565C364.175 169.565 365.475 169.76 366.559 170.15C367.685 170.54 368.639 171.147 369.419 171.97L362.854 180.745C362.507 180.355 362.009 180.052 361.359 179.835C360.752 179.575 360.059 179.445 359.279 179.445C357.805 179.445 356.657 179.9 355.834 180.81C355.01 181.677 354.599 182.977 354.599 184.71ZM386.504 202.715C383.124 202.715 380.069 202 377.339 200.57C374.652 199.14 372.529 197.168 370.969 194.655C369.409 192.142 368.629 189.303 368.629 186.14C368.629 182.933 369.409 180.073 370.969 177.56C372.572 175.047 374.717 173.075 377.404 171.645C380.134 170.172 383.211 169.435 386.634 169.435C389.104 169.435 391.357 169.847 393.394 170.67C395.431 171.493 397.294 172.728 398.984 174.375L391.834 181.525C391.184 180.875 390.426 180.398 389.559 180.095C388.736 179.748 387.761 179.575 386.634 179.575C385.421 179.575 384.316 179.857 383.319 180.42C382.366 180.94 381.586 181.677 380.979 182.63C380.416 183.583 380.134 184.732 380.134 186.075C380.134 187.375 380.416 188.523 380.979 189.52C381.586 190.473 382.366 191.232 383.319 191.795C384.316 192.358 385.421 192.64 386.634 192.64C387.847 192.64 388.887 192.445 389.754 192.055C390.621 191.665 391.379 191.102 392.029 190.365L399.244 197.515C397.467 199.248 395.539 200.548 393.459 201.415C391.422 202.282 389.104 202.715 386.504 202.715ZM418.567 202.715C415.014 202.715 411.872 202.022 409.142 200.635C406.412 199.205 404.267 197.233 402.707 194.72C401.147 192.207 400.367 189.325 400.367 186.075C400.367 182.868 401.126 180.03 402.642 177.56C404.159 175.047 406.217 173.075 408.817 171.645C411.461 170.172 414.429 169.435 417.722 169.435C420.929 169.435 423.767 170.128 426.237 171.515C428.751 172.858 430.701 174.743 432.087 177.17C433.517 179.553 434.232 182.283 434.232 185.36C434.232 186.01 434.189 186.682 434.102 187.375C434.059 188.025 433.929 188.783 433.712 189.65L405.697 189.78V182.5L429.227 182.305L424.157 185.49C424.114 183.713 423.854 182.262 423.377 181.135C422.901 179.965 422.207 179.077 421.297 178.47C420.387 177.863 419.239 177.56 417.852 177.56C416.422 177.56 415.187 177.907 414.147 178.6C413.107 179.293 412.306 180.268 411.742 181.525C411.179 182.782 410.897 184.298 410.897 186.075C410.897 187.895 411.201 189.455 411.807 190.755C412.414 192.012 413.281 192.965 414.407 193.615C415.534 194.265 416.921 194.59 418.567 194.59C420.127 194.59 421.492 194.33 422.662 193.81C423.876 193.29 424.959 192.488 425.912 191.405L431.827 197.32C430.267 199.097 428.361 200.44 426.107 201.35C423.897 202.26 421.384 202.715 418.567 202.715ZM55.525 284.715C51.6683 284.715 48.31 284.13 45.45 282.96C42.6333 281.79 40.055 279.948 37.715 277.435L45.06 270.025C46.6633 271.715 48.375 273.015 50.195 273.925C52.015 274.792 54.0733 275.225 56.37 275.225C58.32 275.225 59.815 274.9 60.855 274.25C61.9383 273.557 62.48 272.625 62.48 271.455C62.48 270.372 62.09 269.483 61.31 268.79C60.53 268.053 59.49 267.425 58.19 266.905C56.9333 266.342 55.525 265.822 53.965 265.345C52.4483 264.825 50.91 264.218 49.35 263.525C47.8333 262.788 46.425 261.9 45.125 260.86C43.8683 259.82 42.85 258.52 42.07 256.96C41.29 255.4 40.9 253.472 40.9 251.175C40.9 248.228 41.5933 245.715 42.98 243.635C44.41 241.555 46.3817 239.952 48.895 238.825C51.4083 237.698 54.3333 237.135 57.67 237.135C61.0067 237.135 64.0833 237.698 66.9 238.825C69.7167 239.952 72.035 241.512 73.855 243.505L66.445 250.85C65.0583 249.463 63.65 248.423 62.22 247.73C60.79 247.037 59.23 246.69 57.54 246.69C55.9367 246.69 54.68 246.972 53.77 247.535C52.86 248.098 52.405 248.9 52.405 249.94C52.405 250.98 52.795 251.825 53.575 252.475C54.355 253.125 55.3733 253.71 56.63 254.23C57.93 254.707 59.3383 255.205 60.855 255.725C62.415 256.245 63.9533 256.852 65.47 257.545C66.9867 258.238 68.3733 259.127 69.63 260.21C70.93 261.293 71.97 262.658 72.75 264.305C73.53 265.952 73.92 267.945 73.92 270.285C73.92 274.878 72.295 278.432 69.045 280.945C65.8383 283.458 61.3317 284.715 55.525 284.715ZM94.6372 284.715C91.2139 284.715 88.1589 284 85.4722 282.57C82.8289 281.097 80.7272 279.103 79.1672 276.59C77.6072 274.033 76.8272 271.173 76.8272 268.01C76.8272 264.847 77.5856 262.03 79.1022 259.56C80.6622 257.047 82.7856 255.075 85.4722 253.645C88.1589 252.172 91.1922 251.435 94.5722 251.435C97.9522 251.435 100.964 252.172 103.607 253.645C106.294 255.075 108.417 257.047 109.977 259.56C111.537 262.03 112.317 264.847 112.317 268.01C112.317 271.173 111.537 274.033 109.977 276.59C108.461 279.103 106.359 281.097 103.672 282.57C101.029 284 98.0172 284.715 94.6372 284.715ZM94.5722 274.64C95.8289 274.64 96.9122 274.38 97.8222 273.86C98.7756 273.297 99.5122 272.517 100.032 271.52C100.552 270.523 100.812 269.375 100.812 268.075C100.812 266.775 100.531 265.648 99.9672 264.695C99.4472 263.698 98.7322 262.94 97.8222 262.42C96.9122 261.857 95.8289 261.575 94.5722 261.575C93.3589 261.575 92.2756 261.857 91.3222 262.42C90.3689 262.983 89.6322 263.763 89.1122 264.76C88.5922 265.713 88.3322 266.84 88.3322 268.14C88.3322 269.397 88.5922 270.523 89.1122 271.52C89.6322 272.517 90.3689 273.297 91.3222 273.86C92.2756 274.38 93.3589 274.64 94.5722 274.64ZM116.804 284V236.615H128.114V284H116.804ZM149.328 284.715C146.338 284.715 143.673 284.13 141.333 282.96C139.036 281.747 137.216 280.078 135.873 277.955C134.573 275.788 133.923 273.34 133.923 270.61V252.215H145.233V270.61C145.233 271.477 145.406 272.235 145.753 272.885C146.1 273.535 146.576 274.033 147.183 274.38C147.79 274.727 148.505 274.9 149.328 274.9C150.541 274.9 151.516 274.51 152.253 273.73C153.033 272.95 153.423 271.91 153.423 270.61V252.215H164.733V270.61C164.733 273.383 164.083 275.832 162.783 277.955C161.483 280.078 159.663 281.747 157.323 282.96C155.026 284.13 152.361 284.715 149.328 284.715ZM174.86 284V239.085H186.17V284H174.86ZM167.84 261.64V252.215H193.19V261.64H167.84ZM197.101 284V252.215H208.476V284H197.101ZM202.756 248.51C201.066 248.51 199.657 247.947 198.531 246.82C197.404 245.65 196.841 244.198 196.841 242.465C196.841 240.775 197.404 239.345 198.531 238.175C199.657 237.005 201.066 236.42 202.756 236.42C204.532 236.42 205.962 237.005 207.046 238.175C208.172 239.345 208.736 240.775 208.736 242.465C208.736 244.198 208.172 245.65 207.046 246.82C205.962 247.947 204.532 248.51 202.756 248.51ZM230.731 284.715C227.308 284.715 224.253 284 221.566 282.57C218.923 281.097 216.821 279.103 215.261 276.59C213.701 274.033 212.921 271.173 212.921 268.01C212.921 264.847 213.679 262.03 215.196 259.56C216.756 257.047 218.879 255.075 221.566 253.645C224.253 252.172 227.286 251.435 230.666 251.435C234.046 251.435 237.058 252.172 239.701 253.645C242.388 255.075 244.511 257.047 246.071 259.56C247.631 262.03 248.411 264.847 248.411 268.01C248.411 271.173 247.631 274.033 246.071 276.59C244.554 279.103 242.453 281.097 239.766 282.57C237.123 284 234.111 284.715 230.731 284.715ZM230.666 274.64C231.923 274.64 233.006 274.38 233.916 273.86C234.869 273.297 235.606 272.517 236.126 271.52C236.646 270.523 236.906 269.375 236.906 268.075C236.906 266.775 236.624 265.648 236.061 264.695C235.541 263.698 234.826 262.94 233.916 262.42C233.006 261.857 231.923 261.575 230.666 261.575C229.453 261.575 228.369 261.857 227.416 262.42C226.463 262.983 225.726 263.763 225.206 264.76C224.686 265.713 224.426 266.84 224.426 268.14C224.426 269.397 224.686 270.523 225.206 271.52C225.726 272.517 226.463 273.297 227.416 273.86C228.369 274.38 229.453 274.64 230.666 274.64ZM273.503 284V266.06C273.503 264.587 273.07 263.438 272.203 262.615C271.336 261.748 270.231 261.315 268.888 261.315C267.978 261.315 267.155 261.51 266.418 261.9C265.725 262.29 265.183 262.832 264.793 263.525C264.403 264.218 264.208 265.063 264.208 266.06L259.788 263.98C259.788 261.423 260.351 259.235 261.478 257.415C262.605 255.552 264.143 254.122 266.093 253.125C268.086 252.085 270.34 251.565 272.853 251.565C275.15 251.565 277.186 252.107 278.963 253.19C280.783 254.23 282.213 255.638 283.253 257.415C284.293 259.192 284.813 261.207 284.813 263.46V284H273.503ZM252.898 284V252.215H264.208V284H252.898ZM302.884 284.91C300.934 284.91 299.005 284.65 297.099 284.13C295.235 283.61 293.48 282.917 291.834 282.05C290.23 281.14 288.865 280.1 287.739 278.93L293.914 272.625C294.954 273.708 296.189 274.553 297.619 275.16C299.092 275.767 300.652 276.07 302.299 276.07C303.252 276.07 303.967 275.94 304.444 275.68C304.964 275.42 305.224 275.052 305.224 274.575C305.224 273.882 304.855 273.362 304.119 273.015C303.425 272.625 302.494 272.3 301.324 272.04C300.197 271.737 299.005 271.39 297.749 271C296.492 270.567 295.279 270.003 294.109 269.31C292.939 268.617 291.985 267.642 291.249 266.385C290.555 265.128 290.209 263.525 290.209 261.575C290.209 259.538 290.75 257.762 291.834 256.245C292.96 254.685 294.52 253.472 296.514 252.605C298.507 251.695 300.847 251.24 303.534 251.24C306.264 251.24 308.864 251.717 311.334 252.67C313.804 253.58 315.797 254.967 317.314 256.83L311.074 263.135C310.034 261.965 308.885 261.163 307.629 260.73C306.372 260.253 305.224 260.015 304.184 260.015C303.187 260.015 302.472 260.167 302.039 260.47C301.605 260.73 301.389 261.098 301.389 261.575C301.389 262.138 301.735 262.593 302.429 262.94C303.165 263.287 304.097 263.612 305.224 263.915C306.394 264.175 307.585 264.522 308.799 264.955C310.055 265.388 311.247 265.995 312.374 266.775C313.544 267.512 314.475 268.508 315.169 269.765C315.905 271.022 316.274 272.647 316.274 274.64C316.274 277.803 315.06 280.317 312.634 282.18C310.207 284 306.957 284.91 302.884 284.91ZM337.286 284V250.2C337.286 247.513 337.871 245.108 339.041 242.985C340.211 240.818 341.88 239.085 344.046 237.785C346.256 236.485 348.9 235.835 351.976 235.835C354.273 235.835 356.288 236.225 358.021 237.005C359.755 237.742 361.25 238.738 362.506 239.995L355.421 247.08C355.075 246.69 354.641 246.408 354.121 246.235C353.645 246.018 353.081 245.91 352.431 245.91C351.261 245.91 350.33 246.257 349.636 246.95C348.943 247.643 348.596 248.575 348.596 249.745V284H337.286ZM330.526 261.64V252.215H357.566V261.64H330.526ZM377.171 284.715C373.748 284.715 370.693 284 368.006 282.57C365.363 281.097 363.261 279.103 361.701 276.59C360.141 274.033 359.361 271.173 359.361 268.01C359.361 264.847 360.12 262.03 361.636 259.56C363.196 257.047 365.32 255.075 368.006 253.645C370.693 252.172 373.726 251.435 377.106 251.435C380.486 251.435 383.498 252.172 386.141 253.645C388.828 255.075 390.951 257.047 392.511 259.56C394.071 262.03 394.851 264.847 394.851 268.01C394.851 271.173 394.071 274.033 392.511 276.59C390.995 279.103 388.893 281.097 386.206 282.57C383.563 284 380.551 284.715 377.171 284.715ZM377.106 274.64C378.363 274.64 379.446 274.38 380.356 273.86C381.31 273.297 382.046 272.517 382.566 271.52C383.086 270.523 383.346 269.375 383.346 268.075C383.346 266.775 383.065 265.648 382.501 264.695C381.981 263.698 381.266 262.94 380.356 262.42C379.446 261.857 378.363 261.575 377.106 261.575C375.893 261.575 374.81 261.857 373.856 262.42C372.903 262.983 372.166 263.763 371.646 264.76C371.126 265.713 370.866 266.84 370.866 268.14C370.866 269.397 371.126 270.523 371.646 271.52C372.166 272.517 372.903 273.297 373.856 273.86C374.81 274.38 375.893 274.64 377.106 274.64ZM399.338 284V252.215H410.648V284H399.338ZM410.648 266.71L405.578 262.42C406.835 258.823 408.503 256.115 410.583 254.295C412.663 252.475 415.372 251.565 418.708 251.565C420.225 251.565 421.525 251.76 422.608 252.15C423.735 252.54 424.688 253.147 425.468 253.97L418.903 262.745C418.557 262.355 418.058 262.052 417.408 261.835C416.802 261.575 416.108 261.445 415.328 261.445C413.855 261.445 412.707 261.9 411.883 262.81C411.06 263.677 410.648 264.977 410.648 266.71ZM454.049 284.65C451.102 284.65 448.48 283.935 446.184 282.505C443.887 281.075 442.089 279.125 440.789 276.655C439.489 274.142 438.839 271.303 438.839 268.14C438.839 264.933 439.489 262.073 440.789 259.56C442.089 257.047 443.887 255.097 446.184 253.71C448.48 252.28 451.102 251.565 454.049 251.565C456.042 251.565 457.862 251.933 459.509 252.67C461.155 253.363 462.499 254.36 463.539 255.66C464.622 256.96 465.272 258.433 465.489 260.08V276.07C465.272 277.76 464.622 279.255 463.539 280.555C462.499 281.812 461.155 282.808 459.509 283.545C457.862 284.282 456.042 284.65 454.049 284.65ZM456.454 274.575C458.317 274.575 459.812 273.968 460.939 272.755C462.109 271.542 462.694 269.982 462.694 268.075C462.694 266.818 462.434 265.713 461.914 264.76C461.394 263.807 460.657 263.048 459.704 262.485C458.794 261.922 457.732 261.64 456.519 261.64C455.305 261.64 454.222 261.922 453.269 262.485C452.359 263.048 451.622 263.828 451.059 264.825C450.539 265.778 450.279 266.862 450.279 268.075C450.279 269.332 450.539 270.458 451.059 271.455C451.579 272.408 452.315 273.167 453.269 273.73C454.222 274.293 455.284 274.575 456.454 274.575ZM462.239 284V275.485L463.864 267.685L462.239 260.015V252.215H473.354V284H462.239ZM479.954 284V236.615H491.264V284H479.954ZM497.918 284V236.615H509.228V284H497.918ZM49.805 366.065L37.065 334.215H49.155L56.955 360.41H52.21L60.075 334.215H72.165L59.1 366L49.805 366.065ZM42.265 379.455L51.69 358.72L59.1 366L53.64 379.455H42.265ZM90.1304 366.715C86.7071 366.715 83.6521 366 80.9654 364.57C78.3221 363.097 76.2204 361.103 74.6604 358.59C73.1004 356.033 72.3204 353.173 72.3204 350.01C72.3204 346.847 73.0787 344.03 74.5954 341.56C76.1554 339.047 78.2787 337.075 80.9654 335.645C83.6521 334.172 86.6854 333.435 90.0654 333.435C93.4454 333.435 96.4571 334.172 99.1004 335.645C101.787 337.075 103.91 339.047 105.47 341.56C107.03 344.03 107.81 346.847 107.81 350.01C107.81 353.173 107.03 356.033 105.47 358.59C103.954 361.103 101.852 363.097 99.1654 364.57C96.5221 366 93.5104 366.715 90.1304 366.715ZM90.0654 356.64C91.3221 356.64 92.4054 356.38 93.3154 355.86C94.2687 355.297 95.0054 354.517 95.5254 353.52C96.0454 352.523 96.3054 351.375 96.3054 350.075C96.3054 348.775 96.0237 347.648 95.4604 346.695C94.9404 345.698 94.2254 344.94 93.3154 344.42C92.4054 343.857 91.3221 343.575 90.0654 343.575C88.8521 343.575 87.7687 343.857 86.8154 344.42C85.8621 344.983 85.1254 345.763 84.6054 346.76C84.0854 347.713 83.8254 348.84 83.8254 350.14C83.8254 351.397 84.0854 352.523 84.6054 353.52C85.1254 354.517 85.8621 355.297 86.8154 355.86C87.7687 356.38 88.8521 356.64 90.0654 356.64ZM126.857 366.715C123.867 366.715 121.202 366.13 118.862 364.96C116.566 363.747 114.746 362.078 113.402 359.955C112.102 357.788 111.452 355.34 111.452 352.61V334.215H122.762V352.61C122.762 353.477 122.936 354.235 123.282 354.885C123.629 355.535 124.106 356.033 124.712 356.38C125.319 356.727 126.034 356.9 126.857 356.9C128.071 356.9 129.046 356.51 129.782 355.73C130.562 354.95 130.952 353.91 130.952 352.61V334.215H142.262V352.61C142.262 355.383 141.612 357.832 140.312 359.955C139.012 362.078 137.192 363.747 134.852 364.96C132.556 366.13 129.891 366.715 126.857 366.715ZM148.035 366V334.215H159.345V366H148.035ZM159.345 348.71L154.275 344.42C155.531 340.823 157.2 338.115 159.28 336.295C161.36 334.475 164.068 333.565 167.405 333.565C168.921 333.565 170.221 333.76 171.305 334.15C172.431 334.54 173.385 335.147 174.165 335.97L167.6 344.745C167.253 344.355 166.755 344.052 166.105 343.835C165.498 343.575 164.805 343.445 164.025 343.445C162.551 343.445 161.403 343.9 160.58 344.81C159.756 345.677 159.345 346.977 159.345 348.71ZM212.69 366.845C209.137 366.845 205.865 366.238 202.875 365.025C199.885 363.812 197.263 362.122 195.01 359.955C192.8 357.788 191.067 355.253 189.81 352.35C188.553 349.403 187.925 346.24 187.925 342.86C187.925 339.48 188.532 336.36 189.745 333.5C191.002 330.597 192.735 328.062 194.945 325.895C197.155 323.728 199.755 322.06 202.745 320.89C205.735 319.677 209.007 319.07 212.56 319.07C216.113 319.07 219.385 319.677 222.375 320.89C225.365 322.06 227.965 323.728 230.175 325.895C232.385 328.062 234.097 330.597 235.31 333.5C236.567 336.403 237.195 339.545 237.195 342.925C237.195 346.305 236.567 349.447 235.31 352.35C234.097 355.253 232.385 357.81 230.175 360.02C227.965 362.187 225.365 363.877 222.375 365.09C219.428 366.26 216.2 366.845 212.69 366.845ZM212.56 356.445C215.16 356.445 217.413 355.882 219.32 354.755C221.227 353.628 222.7 352.047 223.74 350.01C224.78 347.973 225.3 345.59 225.3 342.86C225.3 340.867 224.997 339.047 224.39 337.4C223.827 335.753 222.982 334.345 221.855 333.175C220.728 331.962 219.385 331.03 217.825 330.38C216.265 329.73 214.51 329.405 212.56 329.405C209.96 329.405 207.707 329.968 205.8 331.095C203.893 332.178 202.42 333.738 201.38 335.775C200.34 337.812 199.82 340.173 199.82 342.86C199.82 344.94 200.102 346.825 200.665 348.515C201.272 350.162 202.138 351.592 203.265 352.805C204.392 353.975 205.735 354.885 207.295 355.535C208.855 356.142 210.61 356.445 212.56 356.445ZM262.839 366V348.06C262.839 346.587 262.406 345.438 261.539 344.615C260.672 343.748 259.567 343.315 258.224 343.315C257.314 343.315 256.491 343.51 255.754 343.9C255.061 344.29 254.519 344.832 254.129 345.525C253.739 346.218 253.544 347.063 253.544 348.06L249.124 345.98C249.124 343.423 249.687 341.235 250.814 339.415C251.941 337.552 253.479 336.122 255.429 335.125C257.422 334.085 259.676 333.565 262.189 333.565C264.486 333.565 266.522 334.107 268.299 335.19C270.119 336.23 271.549 337.638 272.589 339.415C273.629 341.192 274.149 343.207 274.149 345.46V366H262.839ZM242.234 366V334.215H253.544V366H242.234ZM280.129 366V318.615H291.439V366H280.129ZM298.028 366V334.215H309.403V366H298.028ZM303.683 330.51C301.993 330.51 300.585 329.947 299.458 328.82C298.332 327.65 297.768 326.198 297.768 324.465C297.768 322.775 298.332 321.345 299.458 320.175C300.585 319.005 301.993 318.42 303.683 318.42C305.46 318.42 306.89 319.005 307.973 320.175C309.1 321.345 309.663 322.775 309.663 324.465C309.663 326.198 309.1 327.65 307.973 328.82C306.89 329.947 305.46 330.51 303.683 330.51ZM336.599 366V348.06C336.599 346.587 336.165 345.438 335.299 344.615C334.432 343.748 333.327 343.315 331.984 343.315C331.074 343.315 330.25 343.51 329.514 343.9C328.82 344.29 328.279 344.832 327.889 345.525C327.499 346.218 327.304 347.063 327.304 348.06L322.884 345.98C322.884 343.423 323.447 341.235 324.574 339.415C325.7 337.552 327.239 336.122 329.189 335.125C331.182 334.085 333.435 333.565 335.949 333.565C338.245 333.565 340.282 334.107 342.059 335.19C343.879 336.23 345.309 337.638 346.349 339.415C347.389 341.192 347.909 343.207 347.909 345.46V366H336.599ZM315.994 366V334.215H327.304V366H315.994ZM369.944 366.715C366.391 366.715 363.249 366.022 360.519 364.635C357.789 363.205 355.644 361.233 354.084 358.72C352.524 356.207 351.744 353.325 351.744 350.075C351.744 346.868 352.503 344.03 354.019 341.56C355.536 339.047 357.594 337.075 360.194 335.645C362.838 334.172 365.806 333.435 369.099 333.435C372.306 333.435 375.144 334.128 377.614 335.515C380.128 336.858 382.078 338.743 383.464 341.17C384.894 343.553 385.609 346.283 385.609 349.36C385.609 350.01 385.566 350.682 385.479 351.375C385.436 352.025 385.306 352.783 385.089 353.65L357.074 353.78V346.5L380.604 346.305L375.534 349.49C375.491 347.713 375.231 346.262 374.754 345.135C374.278 343.965 373.584 343.077 372.674 342.47C371.764 341.863 370.616 341.56 369.229 341.56C367.799 341.56 366.564 341.907 365.524 342.6C364.484 343.293 363.683 344.268 363.119 345.525C362.556 346.782 362.274 348.298 362.274 350.075C362.274 351.895 362.578 353.455 363.184 354.755C363.791 356.012 364.658 356.965 365.784 357.615C366.911 358.265 368.298 358.59 369.944 358.59C371.504 358.59 372.869 358.33 374.039 357.81C375.253 357.29 376.336 356.488 377.289 355.405L383.204 361.32C381.644 363.097 379.738 364.44 377.484 365.35C375.274 366.26 372.761 366.715 369.944 366.715ZM50.325 448V439.355H59.945C61.765 439.355 63.195 438.857 64.235 437.86C65.3183 436.82 65.86 435.477 65.86 433.83C65.86 432.747 65.6217 431.793 65.145 430.97C64.6683 430.103 63.975 429.453 63.065 429.02C62.1983 428.543 61.1583 428.305 59.945 428.305H50.325V419.92H59.23C60.7467 419.92 61.9817 419.552 62.935 418.815C63.9317 418.035 64.43 416.843 64.43 415.24C64.43 413.637 63.9317 412.467 62.935 411.73C61.9817 410.95 60.7467 410.56 59.23 410.56H50.325V401.915H62.025C64.885 401.915 67.355 402.457 69.435 403.54C71.5583 404.623 73.1833 406.075 74.31 407.895C75.4367 409.715 76 411.773 76 414.07C76 417.147 74.9383 419.703 72.815 421.74C70.735 423.733 67.7017 424.968 63.715 425.445V421.545C68.135 422.065 71.515 423.495 73.855 425.835C76.195 428.132 77.365 431.035 77.365 434.545C77.365 437.145 76.715 439.463 75.415 441.5C74.115 443.493 72.2733 445.075 69.89 446.245C67.55 447.415 64.7767 448 61.57 448H50.325ZM41.095 448V401.915H52.535V448H41.095ZM97.1504 448.715C94.1604 448.715 91.4954 448.13 89.1554 446.96C86.8587 445.747 85.0387 444.078 83.6954 441.955C82.3954 439.788 81.7454 437.34 81.7454 434.61V416.215H93.0554V434.61C93.0554 435.477 93.2287 436.235 93.5754 436.885C93.9221 437.535 94.3987 438.033 95.0054 438.38C95.6121 438.727 96.3271 438.9 97.1504 438.9C98.3637 438.9 99.3387 438.51 100.075 437.73C100.855 436.95 101.245 435.91 101.245 434.61V416.215H112.555V434.61C112.555 437.383 111.905 439.832 110.605 441.955C109.305 444.078 107.485 445.747 105.145 446.96C102.849 448.13 100.184 448.715 97.1504 448.715ZM130.418 448.91C128.468 448.91 126.539 448.65 124.633 448.13C122.769 447.61 121.014 446.917 119.368 446.05C117.764 445.14 116.399 444.1 115.273 442.93L121.448 436.625C122.488 437.708 123.723 438.553 125.153 439.16C126.626 439.767 128.186 440.07 129.833 440.07C130.786 440.07 131.501 439.94 131.978 439.68C132.498 439.42 132.758 439.052 132.758 438.575C132.758 437.882 132.389 437.362 131.653 437.015C130.959 436.625 130.028 436.3 128.858 436.04C127.731 435.737 126.539 435.39 125.283 435C124.026 434.567 122.813 434.003 121.643 433.31C120.473 432.617 119.519 431.642 118.783 430.385C118.089 429.128 117.743 427.525 117.743 425.575C117.743 423.538 118.284 421.762 119.368 420.245C120.494 418.685 122.054 417.472 124.048 416.605C126.041 415.695 128.381 415.24 131.068 415.24C133.798 415.24 136.398 415.717 138.868 416.67C141.338 417.58 143.331 418.967 144.848 420.83L138.608 427.135C137.568 425.965 136.419 425.163 135.163 424.73C133.906 424.253 132.758 424.015 131.718 424.015C130.721 424.015 130.006 424.167 129.573 424.47C129.139 424.73 128.923 425.098 128.923 425.575C128.923 426.138 129.269 426.593 129.963 426.94C130.699 427.287 131.631 427.612 132.758 427.915C133.928 428.175 135.119 428.522 136.333 428.955C137.589 429.388 138.781 429.995 139.908 430.775C141.078 431.512 142.009 432.508 142.703 433.765C143.439 435.022 143.808 436.647 143.808 438.64C143.808 441.803 142.594 444.317 140.168 446.18C137.741 448 134.491 448.91 130.418 448.91ZM148.858 448V416.215H160.233V448H148.858ZM154.513 412.51C152.823 412.51 151.415 411.947 150.288 410.82C149.162 409.65 148.598 408.198 148.598 406.465C148.598 404.775 149.162 403.345 150.288 402.175C151.415 401.005 152.823 400.42 154.513 400.42C156.29 400.42 157.72 401.005 158.803 402.175C159.93 403.345 160.493 404.775 160.493 406.465C160.493 408.198 159.93 409.65 158.803 410.82C157.72 411.947 156.29 412.51 154.513 412.51ZM187.429 448V430.06C187.429 428.587 186.995 427.438 186.129 426.615C185.262 425.748 184.157 425.315 182.814 425.315C181.904 425.315 181.08 425.51 180.344 425.9C179.65 426.29 179.109 426.832 178.719 427.525C178.329 428.218 178.134 429.063 178.134 430.06L173.714 427.98C173.714 425.423 174.277 423.235 175.404 421.415C176.53 419.552 178.069 418.122 180.019 417.125C182.012 416.085 184.265 415.565 186.779 415.565C189.075 415.565 191.112 416.107 192.889 417.19C194.709 418.23 196.139 419.638 197.179 421.415C198.219 423.192 198.739 425.207 198.739 427.46V448H187.429ZM166.824 448V416.215H178.134V448H166.824ZM220.774 448.715C217.221 448.715 214.079 448.022 211.349 446.635C208.619 445.205 206.474 443.233 204.914 440.72C203.354 438.207 202.574 435.325 202.574 432.075C202.574 428.868 203.333 426.03 204.849 423.56C206.366 421.047 208.424 419.075 211.024 417.645C213.668 416.172 216.636 415.435 219.929 415.435C223.136 415.435 225.974 416.128 228.444 417.515C230.958 418.858 232.908 420.743 234.294 423.17C235.724 425.553 236.439 428.283 236.439 431.36C236.439 432.01 236.396 432.682 236.309 433.375C236.266 434.025 236.136 434.783 235.919 435.65L207.904 435.78V428.5L231.434 428.305L226.364 431.49C226.321 429.713 226.061 428.262 225.584 427.135C225.108 425.965 224.414 425.077 223.504 424.47C222.594 423.863 221.446 423.56 220.059 423.56C218.629 423.56 217.394 423.907 216.354 424.6C215.314 425.293 214.513 426.268 213.949 427.525C213.386 428.782 213.104 430.298 213.104 432.075C213.104 433.895 213.408 435.455 214.014 436.755C214.621 438.012 215.488 438.965 216.614 439.615C217.741 440.265 219.128 440.59 220.774 440.59C222.334 440.59 223.699 440.33 224.869 439.81C226.083 439.29 227.166 438.488 228.119 437.405L234.034 443.32C232.474 445.097 230.568 446.44 228.314 447.35C226.104 448.26 223.591 448.715 220.774 448.715ZM252.801 448.91C250.851 448.91 248.922 448.65 247.016 448.13C245.152 447.61 243.397 446.917 241.751 446.05C240.147 445.14 238.782 444.1 237.656 442.93L243.831 436.625C244.871 437.708 246.106 438.553 247.536 439.16C249.009 439.767 250.569 440.07 252.216 440.07C253.169 440.07 253.884 439.94 254.361 439.68C254.881 439.42 255.141 439.052 255.141 438.575C255.141 437.882 254.772 437.362 254.036 437.015C253.342 436.625 252.411 436.3 251.241 436.04C250.114 435.737 248.922 435.39 247.666 435C246.409 434.567 245.196 434.003 244.026 433.31C242.856 432.617 241.902 431.642 241.166 430.385C240.472 429.128 240.126 427.525 240.126 425.575C240.126 423.538 240.667 421.762 241.751 420.245C242.877 418.685 244.437 417.472 246.431 416.605C248.424 415.695 250.764 415.24 253.451 415.24C256.181 415.24 258.781 415.717 261.251 416.67C263.721 417.58 265.714 418.967 267.231 420.83L260.991 427.135C259.951 425.965 258.802 425.163 257.546 424.73C256.289 424.253 255.141 424.015 254.101 424.015C253.104 424.015 252.389 424.167 251.956 424.47C251.522 424.73 251.306 425.098 251.306 425.575C251.306 426.138 251.652 426.593 252.346 426.94C253.082 427.287 254.014 427.612 255.141 427.915C256.311 428.175 257.502 428.522 258.716 428.955C259.972 429.388 261.164 429.995 262.291 430.775C263.461 431.512 264.392 432.508 265.086 433.765C265.822 435.022 266.191 436.647 266.191 438.64C266.191 441.803 264.977 444.317 262.551 446.18C260.124 448 256.874 448.91 252.801 448.91ZM283.396 448.91C281.446 448.91 279.518 448.65 277.611 448.13C275.748 447.61 273.993 446.917 272.346 446.05C270.743 445.14 269.378 444.1 268.251 442.93L274.426 436.625C275.466 437.708 276.701 438.553 278.131 439.16C279.605 439.767 281.165 440.07 282.811 440.07C283.765 440.07 284.48 439.94 284.956 439.68C285.476 439.42 285.736 439.052 285.736 438.575C285.736 437.882 285.368 437.362 284.631 437.015C283.938 436.625 283.006 436.3 281.836 436.04C280.71 435.737 279.518 435.39 278.261 435C277.005 434.567 275.791 434.003 274.621 433.31C273.451 432.617 272.498 431.642 271.761 430.385C271.068 429.128 270.721 427.525 270.721 425.575C270.721 423.538 271.263 421.762 272.346 420.245C273.473 418.685 275.033 417.472 277.026 416.605C279.02 415.695 281.36 415.24 284.046 415.24C286.776 415.24 289.376 415.717 291.846 416.67C294.316 417.58 296.31 418.967 297.826 420.83L291.586 427.135C290.546 425.965 289.398 425.163 288.141 424.73C286.885 424.253 285.736 424.015 284.696 424.015C283.7 424.015 282.985 424.167 282.551 424.47C282.118 424.73 281.901 425.098 281.901 425.575C281.901 426.138 282.248 426.593 282.941 426.94C283.678 427.287 284.61 427.612 285.736 427.915C286.906 428.175 288.098 428.522 289.311 428.955C290.568 429.388 291.76 429.995 292.886 430.775C294.056 431.512 294.988 432.508 295.681 433.765C296.418 435.022 296.786 436.647 296.786 438.64C296.786 441.803 295.573 444.317 293.146 446.18C290.72 448 287.47 448.91 283.396 448.91ZM314.679 448V401.915H322.804L326.314 411.34V448H314.679ZM346.464 448L319.554 413.81L322.804 401.915L349.779 436.105L346.464 448ZM346.464 448L343.474 438.315V401.915H355.109V448H346.464ZM378.577 448.715C375.024 448.715 371.882 448.022 369.152 446.635C366.422 445.205 364.277 443.233 362.717 440.72C361.157 438.207 360.377 435.325 360.377 432.075C360.377 428.868 361.135 426.03 362.652 423.56C364.169 421.047 366.227 419.075 368.827 417.645C371.47 416.172 374.439 415.435 377.732 415.435C380.939 415.435 383.777 416.128 386.247 417.515C388.76 418.858 390.71 420.743 392.097 423.17C393.527 425.553 394.242 428.283 394.242 431.36C394.242 432.01 394.199 432.682 394.112 433.375C394.069 434.025 393.939 434.783 393.722 435.65L365.707 435.78V428.5L389.237 428.305L384.167 431.49C384.124 429.713 383.864 428.262 383.387 427.135C382.91 425.965 382.217 425.077 381.307 424.47C380.397 423.863 379.249 423.56 377.862 423.56C376.432 423.56 375.197 423.907 374.157 424.6C373.117 425.293 372.315 426.268 371.752 427.525C371.189 428.782 370.907 430.298 370.907 432.075C370.907 433.895 371.21 435.455 371.817 436.755C372.424 438.012 373.29 438.965 374.417 439.615C375.544 440.265 376.93 440.59 378.577 440.59C380.137 440.59 381.502 440.33 382.672 439.81C383.885 439.29 384.969 438.488 385.922 437.405L391.837 443.32C390.277 445.097 388.37 446.44 386.117 447.35C383.907 448.26 381.394 448.715 378.577 448.715ZM414.568 448.715C411.015 448.715 407.873 448.022 405.143 446.635C402.413 445.205 400.268 443.233 398.708 440.72C397.148 438.207 396.368 435.325 396.368 432.075C396.368 428.868 397.127 426.03 398.643 423.56C400.16 421.047 402.218 419.075 404.818 417.645C407.462 416.172 410.43 415.435 413.723 415.435C416.93 415.435 419.768 416.128 422.238 417.515C424.752 418.858 426.702 420.743 428.088 423.17C429.518 425.553 430.233 428.283 430.233 431.36C430.233 432.01 430.19 432.682 430.103 433.375C430.06 434.025 429.93 434.783 429.713 435.65L401.698 435.78V428.5L425.228 428.305L420.158 431.49C420.115 429.713 419.855 428.262 419.378 427.135C418.902 425.965 418.208 425.077 417.298 424.47C416.388 423.863 415.24 423.56 413.853 423.56C412.423 423.56 411.188 423.907 410.148 424.6C409.108 425.293 408.307 426.268 407.743 427.525C407.18 428.782 406.898 430.298 406.898 432.075C406.898 433.895 407.202 435.455 407.808 436.755C408.415 438.012 409.282 438.965 410.408 439.615C411.535 440.265 412.922 440.59 414.568 440.59C416.128 440.59 417.493 440.33 418.663 439.81C419.877 439.29 420.96 438.488 421.913 437.405L427.828 443.32C426.268 445.097 424.362 446.44 422.108 447.35C419.898 448.26 417.385 448.715 414.568 448.715ZM448.154 448.65C445.078 448.65 442.369 447.935 440.029 446.505C437.689 445.075 435.848 443.125 434.504 440.655C433.204 438.142 432.554 435.303 432.554 432.14C432.554 428.933 433.204 426.073 434.504 423.56C435.848 421.047 437.668 419.097 439.964 417.71C442.304 416.28 445.034 415.565 448.154 415.565C450.148 415.565 452.011 415.933 453.744 416.67C455.478 417.363 456.929 418.36 458.099 419.66C459.269 420.96 459.963 422.433 460.179 424.08V439.615C459.963 441.262 459.269 442.778 458.099 444.165C456.929 445.552 455.478 446.657 453.744 447.48C452.011 448.26 450.148 448.65 448.154 448.65ZM450.169 438.575C451.426 438.575 452.509 438.315 453.419 437.795C454.329 437.232 455.044 436.473 455.564 435.52C456.128 434.523 456.409 433.375 456.409 432.075C456.409 430.818 456.149 429.713 455.629 428.76C455.109 427.807 454.373 427.048 453.419 426.485C452.509 425.922 451.448 425.64 450.234 425.64C449.021 425.64 447.938 425.922 446.984 426.485C446.074 427.048 445.338 427.828 444.774 428.825C444.254 429.778 443.994 430.862 443.994 432.075C443.994 433.332 444.254 434.458 444.774 435.455C445.294 436.408 446.031 437.167 446.984 437.73C447.938 438.293 448.999 438.575 450.169 438.575ZM467.069 448H455.954V439.485L457.579 431.685L455.759 424.015V400.615H467.069V448ZM485.759 448.91C483.809 448.91 481.881 448.65 479.974 448.13C478.111 447.61 476.356 446.917 474.709 446.05C473.106 445.14 471.741 444.1 470.614 442.93L476.789 436.625C477.829 437.708 479.064 438.553 480.494 439.16C481.968 439.767 483.528 440.07 485.174 440.07C486.128 440.07 486.843 439.94 487.319 439.68C487.839 439.42 488.099 439.052 488.099 438.575C488.099 437.882 487.731 437.362 486.994 437.015C486.301 436.625 485.369 436.3 484.199 436.04C483.073 435.737 481.881 435.39 480.624 435C479.368 434.567 478.154 434.003 476.984 433.31C475.814 432.617 474.861 431.642 474.124 430.385C473.431 429.128 473.084 427.525 473.084 425.575C473.084 423.538 473.626 421.762 474.709 420.245C475.836 418.685 477.396 417.472 479.389 416.605C481.383 415.695 483.723 415.24 486.409 415.24C489.139 415.24 491.739 415.717 494.209 416.67C496.679 417.58 498.673 418.967 500.189 420.83L493.949 427.135C492.909 425.965 491.761 425.163 490.504 424.73C489.248 424.253 488.099 424.015 487.059 424.015C486.063 424.015 485.348 424.167 484.914 424.47C484.481 424.73 484.264 425.098 484.264 425.575C484.264 426.138 484.611 426.593 485.304 426.94C486.041 427.287 486.973 427.612 488.099 427.915C489.269 428.175 490.461 428.522 491.674 428.955C492.931 429.388 494.123 429.995 495.249 430.775C496.419 431.512 497.351 432.508 498.044 433.765C498.781 435.022 499.149 436.647 499.149 438.64C499.149 441.803 497.936 444.317 495.509 446.18C493.083 448 489.833 448.91 485.759 448.91Z" fill="white"/>
<rect x="55" y="480" width="450" height="75" rx="15" fill="#6672E2"/>
<path d="M104.36 540.66C101.12 540.66 98.12 540.12 95.36 539.04C92.64 537.92 90.24 536.36 88.16 534.36C86.12 532.36 84.52 530.04 83.36 527.4C82.24 524.72 81.68 521.82 81.68 518.7C81.68 515.54 82.26 512.64 83.42 510C84.62 507.32 86.28 505 88.4 503.04C90.52 501.04 92.98 499.5 95.78 498.42C98.62 497.3 101.64 496.74 104.84 496.74C108.64 496.74 112.08 497.42 115.16 498.78C118.24 500.1 120.74 501.94 122.66 504.3L115.46 511.5C114.02 509.78 112.44 508.5 110.72 507.66C109 506.78 107 506.34 104.72 506.34C102.4 506.34 100.32 506.86 98.48 507.9C96.68 508.9 95.24 510.32 94.16 512.16C93.08 514 92.54 516.16 92.54 518.64C92.54 521.12 93.04 523.3 94.04 525.18C95.08 527.06 96.48 528.52 98.24 529.56C100.04 530.6 102.1 531.12 104.42 531.12C106.74 531.12 108.7 530.68 110.3 529.8C111.94 528.92 113.18 527.64 114.02 525.96C114.9 524.28 115.34 522.28 115.34 519.96L122.6 524.64L103.22 524.16V515.4H126.14V517.02C126.14 522.1 125.22 526.4 123.38 529.92C121.54 533.44 118.98 536.12 115.7 537.96C112.46 539.76 108.68 540.66 104.36 540.66ZM131.241 540V497.46H141.981V540H131.241ZM139.761 540V530.94H162.801V540H139.761ZM139.761 522.72V513.9H160.641V522.72H139.761ZM139.761 506.52V497.46H162.441V506.52H139.761ZM178.006 540V497.76H188.746V540H178.006ZM164.986 506.7V497.46H201.766V506.7H164.986ZM230.108 540.66C226.548 540.66 223.448 540.12 220.808 539.04C218.208 537.96 215.828 536.26 213.668 533.94L220.448 527.1C221.928 528.66 223.508 529.86 225.188 530.7C226.868 531.5 228.768 531.9 230.888 531.9C232.688 531.9 234.068 531.6 235.028 531C236.028 530.36 236.528 529.5 236.528 528.42C236.528 527.42 236.168 526.6 235.448 525.96C234.728 525.28 233.768 524.7 232.568 524.22C231.408 523.7 230.108 523.22 228.668 522.78C227.268 522.3 225.848 521.74 224.408 521.1C223.008 520.42 221.708 519.6 220.508 518.64C219.348 517.68 218.408 516.48 217.688 515.04C216.968 513.6 216.608 511.82 216.608 509.7C216.608 506.98 217.248 504.66 218.528 502.74C219.848 500.82 221.668 499.34 223.988 498.3C226.308 497.26 229.008 496.74 232.088 496.74C235.168 496.74 238.008 497.26 240.608 498.3C243.208 499.34 245.348 500.78 247.028 502.62L240.188 509.4C238.908 508.12 237.608 507.16 236.288 506.52C234.968 505.88 233.528 505.56 231.968 505.56C230.488 505.56 229.328 505.82 228.488 506.34C227.648 506.86 227.228 507.6 227.228 508.56C227.228 509.52 227.588 510.3 228.308 510.9C229.028 511.5 229.968 512.04 231.128 512.52C232.328 512.96 233.628 513.42 235.028 513.9C236.468 514.38 237.888 514.94 239.288 515.58C240.688 516.22 241.968 517.04 243.128 518.04C244.328 519.04 245.288 520.3 246.008 521.82C246.728 523.34 247.088 525.18 247.088 527.34C247.088 531.58 245.588 534.86 242.588 537.18C239.628 539.5 235.468 540.66 230.108 540.66ZM261.385 540V497.76H272.125V540H261.385ZM248.365 506.7V497.46H285.145V506.7H248.365ZM281.93 540L298.43 497.46H308.81L325.13 540H313.91L301.61 504.24H305.51L292.91 540H281.93ZM291.95 532.56V524.04H315.41V532.56H291.95ZM337.632 522.78V515.1H345.732C347.492 515.1 348.832 514.68 349.752 513.84C350.712 512.96 351.192 511.78 351.192 510.3C351.192 508.86 350.712 507.7 349.752 506.82C348.832 505.9 347.492 505.44 345.732 505.44H337.632V497.46H347.232C350.112 497.46 352.632 498 354.792 499.08C356.992 500.16 358.712 501.64 359.952 503.52C361.192 505.4 361.812 507.6 361.812 510.12C361.812 512.64 361.172 514.86 359.892 516.78C358.652 518.66 356.912 520.14 354.672 521.22C352.432 522.26 349.812 522.78 346.812 522.78H337.632ZM329.112 540V497.46H339.852V540H329.112ZM352.152 540L339.792 521.76L349.452 519.42L364.572 540H352.152ZM377.284 540V497.76H388.024V540H377.284ZM364.264 506.7V497.46H401.044V506.7H364.264ZM405.928 540V497.46H416.668V540H405.928ZM414.448 540V530.94H437.488V540H414.448ZM414.448 522.72V513.9H435.328V522.72H414.448ZM414.448 506.52V497.46H437.128V506.52H414.448ZM450.806 540V530.76H461.006C463.406 530.76 465.486 530.3 467.246 529.38C469.046 528.46 470.426 527.1 471.386 525.3C472.346 523.46 472.826 521.24 472.826 518.64C472.826 516.08 472.326 513.92 471.326 512.16C470.366 510.36 469.006 509 467.246 508.08C465.486 507.16 463.406 506.7 461.006 506.7H450.326V497.46H461.066C464.346 497.46 467.366 497.98 470.126 499.02C472.886 500.02 475.286 501.46 477.326 503.34C479.366 505.22 480.946 507.46 482.066 510.06C483.226 512.66 483.806 515.54 483.806 518.7C483.806 521.9 483.226 524.8 482.066 527.4C480.946 530 479.366 532.24 477.326 534.12C475.286 536 472.886 537.46 470.126 538.5C467.406 539.5 464.426 540 461.186 540H450.806ZM443.546 540V497.46H454.286V540H443.546Z" fill="white"/>
<defs>
<linearGradient id="paint0_linear_121_9468" x1="654.097" y1="86.7371" x2="698.498" y2="81.7968" gradientUnits="userSpaceOnUse">
<stop offset="0.321892" stop-color="#515BB7"/>
<stop offset="0.58561" stop-color="#97A0EC"/>
</linearGradient>
<clipPath id="clip0_121_9468">
<rect width="18.915" height="19.3469" fill="white" transform="translate(723.885 67.0759)"/>
</clipPath>
<clipPath id="clip1_121_9468">
<rect width="18.915" height="19.3469" fill="white" transform="translate(1052.12 213.255)"/>
</clipPath>
<clipPath id="clip2_121_9468">
<rect width="18.915" height="19.3469" fill="white" transform="translate(825.136 520.653)"/>
</clipPath>
<clipPath id="clip3_121_9468">
<rect width="18.915" height="19.3469" fill="white" transform="translate(673.816 376.626)"/>
</clipPath>
<clipPath id="clip4_121_9468">
<rect width="18.915" height="21.2405" fill="white" transform="translate(621.83 289.146)"/>
</clipPath>
<clipPath id="clip5_121_9468">
<rect width="26.6471" height="30.8034" fill="white" transform="matrix(1 0 -0.168865 0.985639 1133.58 541.729)"/>
</clipPath>
<clipPath id="clip6_121_9468">
<rect width="26.6471" height="30.8034" fill="white" transform="matrix(1 0 -0.168865 0.985639 1144.63 485.964)"/>
</clipPath>
</defs>
</svg>
